<svg width="853" height="374" viewBox="0 0 853 374" fill="none" xmlns="http://www.w3.org/2000/svg">
<path d="M380.7 262.7C377.993 257.007 374.073 252.62 368.94 249.54C363.807 246.367 357.833 244.78 351.02 244.78C344.207 244.78 338.047 246.367 332.54 249.54C327.127 252.62 322.833 257.1 319.66 262.98C316.58 268.767 315.04 275.487 315.04 283.14C315.04 290.793 316.58 297.513 319.66 303.3C322.833 309.087 327.127 313.567 332.54 316.74C338.047 319.82 344.207 321.36 351.02 321.36C360.54 321.36 368.38 318.513 374.54 312.82C380.7 307.127 384.293 299.427 385.32 289.72H346.4V279.36H398.9V289.16C398.153 297.187 395.633 304.56 391.34 311.28C387.047 317.907 381.4 323.18 374.4 327.1C367.4 330.927 359.607 332.84 351.02 332.84C341.967 332.84 333.707 330.74 326.24 326.54C318.773 322.247 312.847 316.32 308.46 308.76C304.167 301.2 302.02 292.66 302.02 283.14C302.02 273.62 304.167 265.08 308.46 257.52C312.847 249.867 318.773 243.94 326.24 239.74C333.707 235.447 341.967 233.3 351.02 233.3C361.38 233.3 370.527 235.867 378.46 241C386.487 246.133 392.32 253.367 395.96 262.7H380.7ZM485.745 290.7C485.745 293.127 485.605 295.693 485.325 298.4H424.005C424.472 305.96 427.038 311.887 431.705 316.18C436.465 320.38 442.205 322.48 448.925 322.48C454.432 322.48 459.005 321.22 462.645 318.7C466.378 316.087 468.992 312.633 470.485 308.34H484.205C482.152 315.713 478.045 321.733 471.885 326.4C465.725 330.973 458.072 333.26 448.925 333.26C441.645 333.26 435.112 331.627 429.325 328.36C423.632 325.093 419.152 320.473 415.885 314.5C412.618 308.433 410.985 301.433 410.985 293.5C410.985 285.567 412.572 278.613 415.745 272.64C418.918 266.667 423.352 262.093 429.045 258.92C434.832 255.653 441.458 254.02 448.925 254.02C456.205 254.02 462.645 255.607 468.245 258.78C473.845 261.953 478.138 266.34 481.125 271.94C484.205 277.447 485.745 283.7 485.745 290.7ZM472.585 288.04C472.585 283.187 471.512 279.033 469.365 275.58C467.218 272.033 464.278 269.373 460.545 267.6C456.905 265.733 452.845 264.8 448.365 264.8C441.925 264.8 436.418 266.853 431.845 270.96C427.365 275.067 424.798 280.76 424.145 288.04H472.585ZM529.721 333.26C523.841 333.26 518.568 332.28 513.901 330.32C509.235 328.267 505.548 325.467 502.841 321.92C500.135 318.28 498.641 314.127 498.361 309.46H511.521C511.895 313.287 513.668 316.413 516.841 318.84C520.108 321.267 524.355 322.48 529.581 322.48C534.435 322.48 538.261 321.407 541.061 319.26C543.861 317.113 545.261 314.407 545.261 311.14C545.261 307.78 543.768 305.307 540.781 303.72C537.795 302.04 533.175 300.407 526.921 298.82C521.228 297.327 516.561 295.833 512.921 294.34C509.375 292.753 506.295 290.467 503.681 287.48C501.161 284.4 499.901 280.387 499.901 275.44C499.901 271.52 501.068 267.927 503.401 264.66C505.735 261.393 509.048 258.827 513.341 256.96C517.635 255 522.535 254.02 528.041 254.02C536.535 254.02 543.395 256.167 548.621 260.46C553.848 264.753 556.648 270.633 557.021 278.1H544.281C544.001 274.087 542.368 270.867 539.381 268.44C536.488 266.013 532.568 264.8 527.621 264.8C523.048 264.8 519.408 265.78 516.701 267.74C513.995 269.7 512.641 272.267 512.641 275.44C512.641 277.96 513.435 280.06 515.021 281.74C516.701 283.327 518.755 284.633 521.181 285.66C523.701 286.593 527.155 287.667 531.541 288.88C537.048 290.373 541.528 291.867 544.981 293.36C548.435 294.76 551.375 296.907 553.801 299.8C556.321 302.693 557.628 306.473 557.721 311.14C557.721 315.34 556.555 319.12 554.221 322.48C551.888 325.84 548.575 328.5 544.281 330.46C540.081 332.327 535.228 333.26 529.721 333.26ZM591.246 265.78V311C591.246 314.733 592.039 317.393 593.626 318.98C595.212 320.473 597.966 321.22 601.886 321.22H611.266V332H599.786C592.692 332 587.372 330.367 583.826 327.1C580.279 323.833 578.506 318.467 578.506 311V265.78H568.566V255.28H578.506V235.96H591.246V255.28H611.266V265.78H591.246ZM660.162 333.26C652.975 333.26 646.442 331.627 640.562 328.36C634.775 325.093 630.202 320.473 626.842 314.5C623.575 308.433 621.942 301.433 621.942 293.5C621.942 285.66 623.622 278.753 626.982 272.78C630.435 266.713 635.102 262.093 640.982 258.92C646.862 255.653 653.442 254.02 660.722 254.02C668.002 254.02 674.582 255.653 680.462 258.92C686.342 262.093 690.962 266.667 694.322 272.64C697.775 278.613 699.502 285.567 699.502 293.5C699.502 301.433 697.729 308.433 694.182 314.5C690.729 320.473 686.015 325.093 680.042 328.36C674.069 331.627 667.442 333.26 660.162 333.26ZM660.162 322.06C664.735 322.06 669.029 320.987 673.042 318.84C677.055 316.693 680.275 313.473 682.702 309.18C685.222 304.887 686.482 299.66 686.482 293.5C686.482 287.34 685.269 282.113 682.842 277.82C680.415 273.527 677.242 270.353 673.322 268.3C669.402 266.153 665.155 265.08 660.582 265.08C655.915 265.08 651.622 266.153 647.702 268.3C643.875 270.353 640.795 273.527 638.462 277.82C636.129 282.113 634.962 287.34 634.962 293.5C634.962 299.753 636.082 305.027 638.322 309.32C640.655 313.613 643.735 316.833 647.562 318.98C651.389 321.033 655.589 322.06 660.162 322.06ZM728.993 267.74C731.233 263.353 734.406 259.947 738.513 257.52C742.713 255.093 747.799 253.88 753.773 253.88V267.04H750.413C736.133 267.04 728.993 274.787 728.993 290.28V332H716.253V255.28H728.993V267.74ZM763.719 293.36C763.719 285.52 765.306 278.66 768.479 272.78C771.653 266.807 775.993 262.187 781.499 258.92C787.099 255.653 793.306 254.02 800.119 254.02C806.839 254.02 812.673 255.467 817.619 258.36C822.566 261.253 826.253 264.893 828.679 269.28V255.28H841.559V332H828.679V317.72C826.159 322.2 822.379 325.933 817.339 328.92C812.393 331.813 806.606 333.26 799.979 333.26C793.166 333.26 787.006 331.58 781.499 328.22C775.993 324.86 771.653 320.147 768.479 314.08C765.306 308.013 763.719 301.107 763.719 293.36ZM828.679 293.5C828.679 287.713 827.513 282.673 825.179 278.38C822.846 274.087 819.673 270.82 815.659 268.58C811.739 266.247 807.399 265.08 802.639 265.08C797.879 265.08 793.539 266.2 789.619 268.44C785.699 270.68 782.573 273.947 780.239 278.24C777.906 282.533 776.739 287.573 776.739 293.36C776.739 299.24 777.906 304.373 780.239 308.76C782.573 313.053 785.699 316.367 789.619 318.7C793.539 320.94 797.879 322.06 802.639 322.06C807.399 322.06 811.739 320.94 815.659 318.7C819.673 316.367 822.846 313.053 825.179 308.76C827.513 304.373 828.679 299.287 828.679 293.5Z" fill="white"/>
<path d="M557.5 192H524C524.166 175 524.3 133 523.5 101C522.7 69 549.833 56.6667 563.5 54.5H604V84.5H574C562.327 84.5 557.5 94 557.5 101V192Z" fill="white"/>
<path fill-rule="evenodd" clip-rule="evenodd" d="M225 1.5V192H261V118.5H312.5C367.5 120.5 399.5 18.5 312.5 1.5H225ZM261 31V89H305C330 89 345.5 42.5 305 31H261Z" fill="white"/>
<path fill-rule="evenodd" clip-rule="evenodd" d="M437.5 194C476.988 194 509 161.988 509 122.5C509 83.0116 476.988 51 437.5 51C398.012 51 366 83.0116 366 122.5C366 161.988 398.012 194 437.5 194ZM438 166C460.091 166 478 146.748 478 123C478 99.2518 460.091 80 438 80C415.909 80 398 99.2518 398 123C398 146.748 415.909 166 438 166Z" fill="white"/>
<path fill-rule="evenodd" clip-rule="evenodd" d="M773.5 194C812.988 194 845 161.988 845 122.5C845 83.0116 812.988 51 773.5 51C734.012 51 702 83.0116 702 122.5C702 161.988 734.012 194 773.5 194ZM774 166C796.091 166 814 146.748 814 123C814 99.2518 796.091 80 774 80C751.909 80 734 99.2518 734 123C734 146.748 751.909 166 774 166Z" fill="white"/>
<path d="M654 13H621H620.5C620.333 41 620.1 106.8 620.5 146C620.9 185.2 654 192.667 670.5 191.5H692.5V161.5C690.333 161.667 682.9 161.9 670.5 161.5C658.1 161.1 655 151 655 146V82H692.5V54H654V13Z" fill="white"/>
<path fill-rule="evenodd" clip-rule="evenodd" d="M23 0C10.2975 0 0 10.2975 0 23V169C0 181.703 10.2975 192 23 192H166C178.703 192 189 181.703 189 169V23C189 10.2975 178.703 0 166 0H23ZM26.5 20.5C57.5 19 125.1 25.3 147.5 62.5C129.5 50.5 115.5 41.5 45 51.5C43.6797 48.2499 42.7719 45.8045 42.0338 43.8158L42.0336 43.8154L42.0336 43.8153C39.1379 36.0141 38.8513 35.2418 26.5 20.5ZM168.5 103C157.7 47.7998 84.3333 55.9998 49 66.9998C49.0587 67.3523 49.1343 67.7824 49.2233 68.2888L49.2234 68.2892C50.1441 73.53 52.5 86.9391 52.5 107C133 84 157 91 168.5 103ZM51 123.5C50 134.334 44.6 158.9 35 172.5C42.2832 169.568 49.8707 166.349 57.5186 163.105C90.2983 149.2 124.189 134.824 140 140.5C143.23 142.653 140.535 146.867 136.169 153.696C134.452 156.382 132.476 159.472 130.5 163C149 150.5 181.057 120.674 162.5 108C142 94 69.5 112.5 51 123.5Z" fill="white"/>
</svg>
