<svg width="32" height="32" viewBox="0 0 32 32" fill="none" xmlns="http://www.w3.org/2000/svg">
<path fill-rule="evenodd" clip-rule="evenodd" d="M25.31 3C25.6119 2.99661 25.9061 3.13029 26.1021 3.37505L26.1143 3.39035C26.2968 3.61825 26.3638 3.90269 26.3214 4.17146V18.7233L26.3336 19.9904C26.3362 20.2572 26.232 20.5141 26.0442 20.7037C25.8564 20.8933 25.6005 21 25.3337 21H19.3337C18.4132 21 17.667 20.2538 17.667 19.3333V15.0856C17.667 11.8743 18.4459 8.91861 19.7576 6.73239C21.0559 4.56867 22.9877 3.00375 25.31 3ZM24.3214 5.16627C23.3041 5.50646 22.3078 6.36938 21.4726 7.76139C20.377 9.58736 19.667 12.1745 19.667 15.0856V19H24.3214V18.733L24.3184 18.4209C24.3181 18.3911 24.3191 18.3616 24.3214 18.3324V5.16627Z" fill="white"/>
<path fill-rule="evenodd" clip-rule="evenodd" d="M20.334 20C20.334 19.4477 20.7817 19 21.334 19H25.334C25.8863 19 26.334 19.4477 26.334 20V26C26.334 27.6569 24.9908 29 23.334 29C21.6771 29 20.334 27.6569 20.334 26V20ZM23.334 27C23.8863 27 24.334 26.5523 24.334 26V21H22.334V26C22.334 26.5523 22.7817 27 23.334 27Z" fill="white"/>
<path fill-rule="evenodd" clip-rule="evenodd" d="M10 12.8667C10.5523 12.8667 11 13.3144 11 13.8667V17.3333C11 17.8856 10.5523 18.3333 10 18.3333C9.44772 18.3333 9 17.8856 9 17.3333V13.8667C9 13.3144 9.44772 12.8667 10 12.8667Z" fill="white"/>
<path fill-rule="evenodd" clip-rule="evenodd" d="M7 19.3333C7 17.6765 8.34315 16.3333 10 16.3333C11.6569 16.3333 13 17.6765 13 19.3333V26C13 27.6568 11.6569 29 10 29C8.34315 29 7 27.6568 7 26V19.3333ZM10 27C10.5523 27 11 26.5523 11 26V19.3333C11 18.781 10.5523 18.3333 10 18.3333C9.44772 18.3333 9 18.781 9 19.3333V26C9 26.5523 9.44772 27 10 27Z" fill="white"/>
<path fill-rule="evenodd" clip-rule="evenodd" d="M10 3.33334C10.5523 3.33334 11 3.78106 11 4.33334V10C11 10.5523 10.5523 11 10 11C9.44772 11 9 10.5523 9 10V4.33334C9 3.78106 9.44772 3.33334 10 3.33334Z" fill="white"/>
<path fill-rule="evenodd" clip-rule="evenodd" d="M6.66699 3C7.21928 3 7.66699 3.44772 7.66699 4V11.2C7.66699 12.1205 8.41318 12.8667 9.33366 12.8667H10.667C11.5875 12.8667 12.3337 12.1205 12.3337 11.2V4C12.3337 3.44772 12.7814 3 13.3337 3C13.8859 3 14.3337 3.44772 14.3337 4V11.2C14.3337 13.225 12.692 14.8667 10.667 14.8667H9.33366C7.30861 14.8667 5.66699 13.225 5.66699 11.2V4C5.66699 3.44772 6.11471 3 6.66699 3Z" fill="white"/>
<path fill-rule="evenodd" clip-rule="evenodd" d="M5.66699 10C5.66699 9.44772 6.11471 9 6.66699 9H13.3337C13.8859 9 14.3337 9.44772 14.3337 10C14.3337 10.5523 13.8859 11 13.3337 11H6.66699C6.11471 11 5.66699 10.5523 5.66699 10Z" fill="white"/>
</svg>
