<svg width="24" height="24" viewBox="0 0 24 24" fill="none" xmlns="http://www.w3.org/2000/svg">
<path d="M12.4227 3.9205C13.65 5.14784 13.65 7.13775 12.4227 8.36509C11.1954 9.59243 9.20546 9.59243 7.97812 8.36509C6.75078 7.13775 6.75078 5.14784 7.97812 3.9205C9.20546 2.69317 11.1954 2.69317 12.4227 3.9205" stroke="#034D2E" stroke-width="1.5" stroke-linecap="round" stroke-linejoin="round"/>
<path d="M14.1267 12.7167C12.9576 12.2496 11.586 11.9922 10.2 11.9922C6.5568 11.9922 3 13.7625 3 16.485V17.385C3 17.8818 3.4032 18.285 3.9 18.285H12.3717" stroke="#034D2E" stroke-width="1.5" stroke-linecap="round" stroke-linejoin="round"/>
<path d="M16.5 21C14.0151 21 12 18.9858 12 16.5C12 14.0664 14.07 11.9973 16.5036 12C18.9876 12.0018 21 14.016 21 16.5C21 18.9849 18.9858 21 16.5 21" stroke="#034D2E" stroke-width="1.5" stroke-linecap="round" stroke-linejoin="round"/>
<path d="M16.4998 14.7003V15.3033" stroke="#034D2E" stroke-width="1.5" stroke-linecap="round" stroke-linejoin="round"/>
<path d="M16.4998 17.6973V18.3003" stroke="#034D2E" stroke-width="1.5" stroke-linecap="round" stroke-linejoin="round"/>
<path d="M14.9429 15.6003L15.4649 15.8973" stroke="#034D2E" stroke-width="1.5" stroke-linecap="round" stroke-linejoin="round"/>
<path d="M17.5441 17.1033L18.0571 17.4003" stroke="#034D2E" stroke-width="1.5" stroke-linecap="round" stroke-linejoin="round"/>
<path d="M14.9429 17.4003L15.4649 17.1033" stroke="#034D2E" stroke-width="1.5" stroke-linecap="round" stroke-linejoin="round"/>
<path d="M17.5441 15.8973L18.0571 15.6003" stroke="#034D2E" stroke-width="1.5" stroke-linecap="round" stroke-linejoin="round"/>
<path d="M17.3494 15.6515C17.8182 16.1203 17.8182 16.8805 17.3494 17.3494C16.8805 17.8182 16.1203 17.8182 15.6515 17.3494C15.1826 16.8805 15.1826 16.1203 15.6515 15.6515C16.1203 15.1826 16.8805 15.1826 17.3494 15.6515" stroke="#034D2E" stroke-width="1.5" stroke-linecap="round" stroke-linejoin="round"/>
</svg>
