<svg width="25" height="28" viewBox="0 0 25 28" fill="none" xmlns="http://www.w3.org/2000/svg">
<path d="M7.45921 23.8789V27.0458H3.21094V23.8789" fill="#1B2126"/>
<path d="M21.3264 23.8789V27.0458H17.0781V23.8789" fill="#1B2126"/>
<path d="M7.46059 19.7383C7.53783 20.7424 6.72679 21.5535 5.72265 21.4762C4.95024 21.399 4.33234 20.7811 4.2551 20.0087C4.17785 19.0045 4.98889 18.1935 5.99303 18.2707C6.76544 18.348 7.38334 18.9659 7.46059 19.7383Z" fill="#1B2126"/>
<path d="M20.2418 19.7383C20.3191 20.7424 19.508 21.5535 18.5039 21.4762C17.7315 21.399 17.1136 20.7811 17.0363 20.0087C16.9591 19.0045 17.7701 18.1935 18.7743 18.2707C19.5853 18.348 20.2032 18.9659 20.2418 19.7383Z" fill="#1B2126"/>
<path d="M20.1469 1.19922H4.34687C2.52434 1.19922 1.04688 2.67668 1.04688 4.49922V21.3806C1.04688 23.2031 2.52433 24.6806 4.34687 24.6806H20.1469C21.9694 24.6806 23.4469 23.2031 23.4469 21.3806V4.49922C23.4469 2.67668 21.9694 1.19922 20.1469 1.19922Z" stroke="#1B2126" stroke-width="2" stroke-miterlimit="10"/>
<path d="M23.4469 11.8594C23.4469 13.6359 22.0179 15.0649 20.2413 15.0649H4.25241C2.47586 15.0649 1.04688 13.6359 1.04688 11.8594" stroke="#1B2126" stroke-width="2" stroke-miterlimit="10"/>
<path d="M15.9928 2.52344H8.53906" stroke="#1B2126" stroke-width="2" stroke-miterlimit="10"/>
</svg>
