<svg
  width="16"
  height="16"
  viewBox="0 0 16 16"
  fill="none"
  xmlns="http://www.w3.org/2000/svg"
>
  <path
    d="M5.12301 13.25L2.64151 13.9795C2.5539 14.0054 2.46085 14.0069 2.37248 13.9837C2.28411 13.9605 2.20378 13.9135 2.14024 13.8478C2.07669 13.7821 2.03236 13.7003 2.01204 13.6112C1.99173 13.5222 1.99621 13.4292 2.02501 13.3425L2.79551 11.02C2.27159 10.0999 1.99736 9.0588 2.00001 8C2.00006 6.81335 2.35199 5.65336 3.01128 4.66672C3.67057 3.68008 4.60762 2.91109 5.70395 2.45698C6.80027 2.00288 8.00662 1.88406 9.17047 2.11555C10.3343 2.34704 11.4034 2.91844 12.2425 3.7575C13.2714 4.77519 13.8969 6.13103 14.0034 7.57425C14.1099 9.01748 13.6902 10.4505 12.8219 11.6082C11.9536 12.7659 10.6955 13.57 9.28014 13.8718C7.86481 14.1737 6.38806 13.9528 5.12301 13.25ZM5.42951 12.277C6.37568 12.8429 7.4826 13.0797 8.5775 12.9504C9.67241 12.8211 10.6937 12.333 11.482 11.5622C12.2703 10.7914 12.7813 9.78131 12.9351 8.68958C13.089 7.59786 12.8771 6.4859 12.3326 5.52725C11.788 4.5686 10.9415 3.81719 9.92495 3.39029C8.90843 2.96339 7.77919 2.88501 6.71345 3.16738C5.64771 3.44976 4.70543 4.07701 4.03366 4.95123C3.36189 5.82546 2.99844 6.89748 3.00001 8C2.99137 8.94481 3.25467 9.87218 3.75851 10.6715C3.80166 10.735 3.82961 10.8076 3.84019 10.8836C3.85076 10.9597 3.84369 11.0371 3.81951 11.11L3.27551 12.75L5.04051 12.23C5.08644 12.2164 5.1341 12.2095 5.18201 12.2095C5.26887 12.2099 5.35413 12.2328 5.42951 12.276V12.277ZM8.47951 11.017C7.6999 10.6889 6.99501 10.206 6.40751 9.5975C5.79962 9.00933 5.31739 8.30393 4.99001 7.524C4.82966 7.13211 4.7568 6.70995 4.77651 6.287C4.80271 5.80202 5.00691 5.34376 5.35001 5C6.46851 3.8815 7.45851 4.2795 7.82551 4.6465C7.93509 4.75637 8.0176 4.89023 8.06651 5.0375L8.42001 6.0975C8.47163 6.2522 8.48462 6.41718 8.45787 6.57806C8.43111 6.73893 8.36542 6.89083 8.26651 7.0205C8.33057 7.18475 8.41999 7.33794 8.53151 7.4745C8.66799 7.58651 8.8214 7.67612 8.98601 7.74C9.11562 7.64117 9.26743 7.57552 9.42821 7.54876C9.58899 7.52201 9.75388 7.53496 9.90851 7.5865L10.969 7.94C11.1164 7.9888 11.2504 8.07151 11.36 8.1815C11.7265 8.548 12.125 9.538 11.0065 10.656C10.6625 10.9986 10.2043 11.2024 9.71951 11.2285C9.66817 11.2318 9.61617 11.2335 9.56351 11.2335C9.19236 11.2278 8.82542 11.1539 8.48101 11.0155L8.47951 11.017ZM6.05601 5.707C5.34851 6.414 6.05601 7.8285 7.11601 8.889C8.17601 9.9495 9.59151 10.6565 10.3 9.95C11.0085 9.2435 10.653 8.8895 10.653 8.8895L9.59301 8.536L9.23951 8.8895C8.72365 8.75563 8.24171 8.51475 7.82501 8.1825C7.49276 7.76579 7.25188 7.28386 7.11801 6.768L7.47151 6.4145L7.11801 5.354C7.04378 5.29253 6.94928 5.26097 6.85301 5.2655C6.53944 5.30158 6.25291 5.46031 6.05601 5.707Z"
    fill="#798286"
  />
</svg>
