<svg width="80" height="80" viewBox="0 0 80 80" fill="none" xmlns="http://www.w3.org/2000/svg">
<path d="M59.0939 9.58155C58.1364 8.53272 56.5498 8.82924 55.7518 10.004C54.9775 11.144 55.2497 12.6917 56.0293 13.828C56.2568 14.1595 56.4702 14.527 56.6404 14.9219C57.2752 16.416 57.7342 18.164 55.3123 21.0937L53.1248 23.2812C45.7615 17.0117 38.2811 16.7187 38.2811 16.7187H36.8748L36.0936 17.9687C36.0936 17.9687 29.7166 28.8086 23.5936 40C20.5272 45.5957 17.4998 51.289 15.3904 55.7812C14.3358 58.0273 13.5057 59.9805 12.9686 61.5625C12.7049 62.3535 12.5193 63.0176 12.4217 63.75C12.324 64.4824 12.0506 65.4883 13.2811 66.7187C14.5115 67.9492 15.5174 67.6758 16.2498 67.5781C16.9822 67.4805 17.6463 67.2949 18.4373 67.0312C20.0193 66.4941 21.9725 65.664 24.2186 64.6094C28.7108 62.5 34.4041 59.4726 39.9998 56.4062C51.1815 50.2734 62.0311 43.9062 62.0311 43.9062L63.2811 43.125V41.6406C63.2811 41.6406 62.949 34.248 56.7186 26.875L57.5779 25.9375C57.7928 25.7226 57.9881 25.5762 58.2029 25.3906L58.8279 24.8437C61.7772 22.5781 64.5701 22.666 67.0311 23.2812C68.0442 23.5345 68.9459 23.8892 69.6849 24.2393C70.9154 24.8224 72.4752 24.6206 73.3258 23.5573C74.2025 22.4614 73.9934 20.8757 72.7557 20.2141C71.5918 19.5919 70.022 18.8922 68.2029 18.4375C67.3826 18.2324 66.4842 18.1152 65.5467 18.0469L68.8279 14.7656C69.8203 13.7732 69.8203 12.1642 68.8279 11.1719C67.8356 10.1795 66.2266 10.1795 65.2342 11.1719L61.7967 14.6094C61.6697 14.0039 61.4744 13.418 61.2498 12.8906C60.656 11.5051 59.8393 10.3981 59.0939 9.58155ZM39.5311 22.0312C41.1717 22.1875 45.869 22.8711 51.4842 28.5156C57.1092 34.1797 57.8026 38.8379 57.9686 40.4687C57.5584 40.7129 55.4197 42.0019 53.7498 42.9687C53.0955 41.5039 52.0506 39.5312 50.4686 37.4219L46.4842 40.4687C48.242 42.8125 48.9647 44.4238 49.3748 45.4687C45.9666 47.4121 42.0604 49.5703 37.5779 52.0312C37.3338 52.1582 37.119 52.2949 36.8748 52.4219C36.4158 51.0547 35.6639 49.4043 34.2967 47.5L30.2342 50.3906C31.4647 52.1094 32.0701 53.5254 32.3436 54.4531C32.3924 54.6094 32.3924 54.6484 32.4217 54.7656C28.6815 56.7676 25.0682 58.6914 22.1092 60.0781C20.5662 60.8008 19.4725 61.2012 18.3592 61.6406C18.7986 60.5273 19.199 59.4336 19.9217 57.8906C21.9432 53.584 24.9315 47.9687 27.9686 42.4219C29.4334 39.7461 30.5467 37.7441 31.8748 35.3906C32.6756 36.0937 33.7108 37.041 34.8436 38.5156L38.7498 35.4687C37.1287 33.3496 35.5369 31.8555 34.3748 30.9375C36.992 26.3476 39.0818 22.8027 39.5311 22.0312Z" fill="#02D72F"/>
</svg>
