<svg width="80" height="80" viewBox="0 0 80 80" fill="none" xmlns="http://www.w3.org/2000/svg">
<path d="M43.335 29.9959H56.6738" stroke="#02D72F" stroke-width="5" stroke-linecap="round" stroke-linejoin="round"/>
<path d="M23.3262 29.0821L26.3908 31.8432L32.56 26.2876" stroke="#02D72F" stroke-width="5" stroke-linecap="round" stroke-linejoin="round"/>
<path d="M33.3304 66.6778H26.6609C17.4523 66.6778 9.9873 59.2127 9.9873 50.0042V23.3264C9.9873 14.1178 17.4523 6.65277 26.6609 6.65277H53.3387C57.7608 6.65277 62.0018 8.40945 65.1287 11.5364C68.2556 14.6633 70.0123 18.9043 70.0123 23.3264V33.3305" stroke="#02D72F" stroke-width="5" stroke-linecap="round" stroke-linejoin="round"/>
<path d="M23.3262 45.7557L26.3908 48.5169L32.56 42.9612" stroke="#02D72F" stroke-width="5" stroke-linecap="round" stroke-linejoin="round"/>
<path d="M46.6699 46.3353V65.3446C46.6733 67.922 51.8947 70.0125 58.3398 70.0125C64.7849 70.0125 70.0063 67.922 70.0096 65.3446V46.3353" stroke="#02D72F" stroke-width="5" stroke-linecap="round" stroke-linejoin="round"/>
<path d="M46.6729 55.84C46.6729 58.4173 51.8976 60.5079 58.3427 60.5079C64.7878 60.5079 70.0126 58.4173 70.0126 55.84" stroke="#02D72F" stroke-width="5" stroke-linecap="round" stroke-linejoin="round"/>
<path d="M46.6733 46.3353C46.6733 48.9127 51.898 51.0033 58.3431 51.0033C64.7882 51.0033 70.0096 48.9127 70.0096 46.3353C70.0096 43.7546 64.7815 41.6674 58.3398 41.6674C51.898 41.6674 46.6733 43.7579 46.6699 46.3353" stroke="#02D72F" stroke-width="5" stroke-linecap="round" stroke-linejoin="round"/>
</svg>
