<svg width="24" height="24" viewBox="0 0 24 24" fill="none" xmlns="http://www.w3.org/2000/svg">
<path d="M14.748 17.1938V19.3361C14.748 19.8231 14.9932 20.2683 15.3812 20.4861L15.8046 20.7236C16.4615 21.0923 17.2346 21.0923 17.8915 20.7236L18.3148 20.4861C18.7029 20.2683 18.948 19.8231 18.948 19.3361V17.1938" stroke="#323232" stroke-width="1.5" stroke-linecap="round" stroke-linejoin="round"/>
<path fill-rule="evenodd" clip-rule="evenodd" d="M13.3745 16.3964L15.9718 17.9034C16.5217 18.2225 17.1753 18.2225 17.7252 17.9034L20.3226 16.3964C20.534 16.2737 20.6668 16.0289 20.6668 15.7618C20.6668 15.4947 20.534 15.2499 20.3226 15.1272L17.7252 13.6202C17.1753 13.3011 16.5217 13.3011 15.9718 13.6202L13.3745 15.1272C13.1631 15.2499 13.0303 15.4947 13.0303 15.7618C13.0303 16.0289 13.1631 16.2737 13.3745 16.3964Z" stroke="#323232" stroke-width="1.5" stroke-linecap="round" stroke-linejoin="round"/>
<path d="M20.6664 15.7717V17.426" stroke="#323232" stroke-width="1.5" stroke-linecap="round" stroke-linejoin="round"/>
<path d="M18.9701 10.5238V6.71432C18.9701 5.13636 17.8305 3.85718 16.4247 3.85718H7.09135C5.68554 3.85718 4.5459 5.13636 4.5459 6.71432V18.1429C4.5459 19.7208 5.68554 21 7.09135 21H11.3338" stroke="#323232" stroke-width="1.5" stroke-linecap="round" stroke-linejoin="round"/>
<path d="M7.93945 8.61901H15.5758" stroke="#323232" stroke-width="1.5" stroke-linecap="round" stroke-linejoin="round"/>
<path d="M7.93945 12.4286H11.3334" stroke="#323232" stroke-width="1.5" stroke-linecap="round" stroke-linejoin="round"/>
<path d="M7.93945 16.2382H9.63642" stroke="#323232" stroke-width="1.5" stroke-linecap="round" stroke-linejoin="round"/>
</svg>
