<svg width="80" height="80" viewBox="0 0 80 80" fill="none" xmlns="http://www.w3.org/2000/svg">
<path fill-rule="evenodd" clip-rule="evenodd" d="M7.5 30C7.5 28.6193 8.61929 27.5 10 27.5H70C71.3807 27.5 72.5 28.6193 72.5 30C72.5 31.3807 71.3807 32.5 70 32.5H10C8.61929 32.5 7.5 31.3807 7.5 30Z" fill="#02D72F"/>
<path fill-rule="evenodd" clip-rule="evenodd" d="M20.833 43.3334C20.833 41.9527 21.9523 40.8334 23.333 40.8334H31.6663C33.0471 40.8334 34.1663 41.9527 34.1663 43.3334C34.1663 44.7141 33.0471 45.8334 31.6663 45.8334H23.333C21.9523 45.8334 20.833 44.7141 20.833 43.3334Z" fill="#02D72F"/>
<path fill-rule="evenodd" clip-rule="evenodd" d="M7.5 63.3334C7.5 61.9527 8.61929 60.8334 10 60.8334H36.6667C38.0474 60.8334 39.1667 61.9527 39.1667 63.3334C39.1667 64.7141 38.0474 65.8334 36.6667 65.8334H10C8.61929 65.8334 7.5 64.7141 7.5 63.3334Z" fill="#02D72F"/>
<path fill-rule="evenodd" clip-rule="evenodd" d="M28.2322 54.8989C29.2085 53.9226 30.7915 53.9226 31.7678 54.8989L38.4344 61.5656C39.4107 62.5419 39.4107 64.1248 38.4344 65.1011L31.7678 71.7678C30.7915 72.7441 29.2085 72.7441 28.2322 71.7678C27.2559 70.7915 27.2559 69.2086 28.2322 68.2323L33.1311 63.3334L28.2322 58.4345C27.2559 57.4581 27.2559 55.8752 28.2322 54.8989Z" fill="#02D72F"/>
<path fill-rule="evenodd" clip-rule="evenodd" d="M20 19.1667C15.8574 19.1667 12.5 22.5241 12.5 26.6667V50C12.5 51.3807 11.3807 52.5 10 52.5C8.61929 52.5 7.5 51.3807 7.5 50V26.6667C7.5 19.7626 13.096 14.1667 20 14.1667H60C66.904 14.1667 72.5 19.7626 72.5 26.6667V53.3334C72.5 60.2374 66.904 65.8334 60 65.8334H50C48.6193 65.8334 47.5 64.7141 47.5 63.3334C47.5 61.9526 48.6193 60.8334 50 60.8334H60C64.1426 60.8334 67.5 57.476 67.5 53.3334V26.6667C67.5 22.5241 64.1426 19.1667 60 19.1667H20Z" fill="#02D72F"/>
</svg>
