<svg width="81" height="80" viewBox="0 0 81 80" fill="none" xmlns="http://www.w3.org/2000/svg">
<path d="M48.4812 17.4219C47.0945 17.4316 45.7175 17.5 44.2625 17.8906C42.8074 18.2812 41.3523 18.9062 39.8093 19.9219C37.8953 18.7988 36.0398 17.8711 34.2625 17.6562C32.0554 17.3828 30.0046 17.5293 27.6218 17.5781C24.7996 17.6367 22.9539 19.082 19.9656 20.2344C16.9773 21.3867 13.1296 22.5 7.69995 22.5C6.31924 22.5 5.19995 23.6193 5.19995 25V44.9902C5.19995 45.9538 5.74436 46.8347 6.6062 47.2656L11.2156 49.5312L27.6218 67.8125L27.7 67.8906C29.575 69.7461 32.1042 70.2051 34.3406 70.0781C36.5769 69.9512 38.6765 69.2969 40.3562 68.2812C44.0476 66.0547 54.1062 59.0625 54.1062 59.0625L54.3406 58.9062L54.4968 58.75C55.6882 57.5683 56.2839 56.123 56.6843 54.6094L66.2937 49.7656L73.4812 47.3437C74.5048 47.018 75.1999 46.0674 75.1999 44.9932V25C75.1999 23.6193 74.0807 22.5 72.6999 22.5C67.28 22.5 63.4226 21.3281 60.4343 20.1562C57.446 18.9844 55.6296 17.5586 52.7781 17.5C51.2546 17.4707 49.8679 17.4121 48.4812 17.4219ZM48.5593 22.4219C49.6824 22.4121 50.9812 22.4707 52.6218 22.5C52.8855 22.5098 55.2878 23.5351 58.6374 24.8437C61.4695 25.957 65.405 26.9433 70.1999 27.2656V43.2031L64.4187 45.1562H64.2624L64.1062 45.2344L56.5281 49.0625C56.1082 47.9199 55.532 46.8652 54.6531 45.9375L54.4968 45.7031L43.8718 32.6562L42.3093 30.7031L40.3562 32.2656L33.6375 37.7344C31.3816 39.2969 29.5554 38.8476 27.7 37.9687C27.1628 37.7148 27.1921 37.6367 26.7625 37.3437L38.1687 27.8906L38.325 27.7344C41.7136 24.375 43.7937 23.2129 45.5906 22.7344C46.489 22.4902 47.4363 22.4316 48.5593 22.4219ZM31.1375 22.5C32.0945 22.4805 32.8953 22.4902 33.6375 22.5781C34.2917 22.6562 35.0339 23.2129 35.6687 23.4375C35.4148 23.6719 35.2292 23.8086 34.9656 24.0625C34.907 24.1211 34.8679 24.1601 34.8093 24.2187L21.1375 35.5469C20.0069 36.4681 19.8931 38.1667 20.9031 39.2187C20.9031 39.2187 22.7097 41.1719 25.5125 42.5C28.3152 43.8281 32.6414 44.5801 36.5281 41.875L36.6843 41.7187L41.5281 37.7344L50.7468 49.0625L50.825 49.2187L50.9031 49.2969C52.5535 50.9277 52.5144 53.4961 50.9031 55.1562C50.8835 55.1758 50.9226 55.2148 50.9031 55.2344C50.8835 55.2441 50.5515 55.4394 50.5125 55.4687L47.2312 51.0156L43.1687 53.9844L46.3718 58.2812C45.073 59.1601 44.4871 59.6191 43.0906 60.5469L39.7312 56.0156L35.6687 58.9844L38.8718 63.2812C38.5886 63.457 38.0027 63.8476 37.7781 63.9844C36.9871 64.4629 35.4636 65 34.1062 65.0781C32.8269 65.1465 31.8503 64.8535 31.3718 64.4531L31.2937 64.375L14.575 45.8594L14.2625 45.4687L10.2 43.4375V27.2656C14.9753 26.9531 18.9402 26.0058 21.7625 24.9219C25.1023 23.6426 27.4851 22.5879 27.7781 22.5781C29.0574 22.5488 30.1804 22.5195 31.1375 22.5Z" fill="#02D72F"/>
</svg>
