<svg width="80" height="80" viewBox="0 0 80 80" fill="none" xmlns="http://www.w3.org/2000/svg">
<path d="M56.773 41.5567C56.833 41.6167 56.833 41.7133 56.773 41.7733C56.713 41.8333 56.6164 41.8333 56.5564 41.7733C56.4964 41.7133 56.4964 41.6167 56.5564 41.5567C56.6164 41.4967 56.7164 41.5 56.773 41.5567" stroke="#02D72F" stroke-width="5" stroke-linecap="round" stroke-linejoin="round"/>
<path d="M48.8737 24.9266C49.577 23.4233 50.0003 21.7666 50.0003 20C50.0003 13.5566 44.777 8.33331 38.3337 8.33331C31.8903 8.33331 26.667 13.5566 26.667 20C26.667 22.0766 27.2537 24 28.207 25.6866" stroke="#02D72F" stroke-width="5" stroke-linecap="round" stroke-linejoin="round"/>
<path d="M7.62667 35C6.06333 35.91 5 37.5867 5 39.5267C5 42.43 7.35333 44.7833 10.2567 44.7833H13.3333" stroke="#02D72F" stroke-width="5" stroke-linecap="round" stroke-linejoin="round"/>
<path fill-rule="evenodd" clip-rule="evenodd" d="M61.6663 21.6667V30.18C64.0597 32.34 65.9597 35.0334 67.0863 38.1167H69.9997C71.8397 38.1167 73.333 39.61 73.333 41.45V51.6667C73.333 53.5067 71.8397 55 69.9997 55H65.6297C63.8797 58.0267 61.353 60.5467 58.333 62.3034V68.3334C58.333 70.1734 56.8397 71.6667 54.9997 71.6667H48.333C46.493 71.6667 44.9997 70.1734 44.9997 68.3334V65H33.333V67.8934C33.333 69.7334 31.8397 71.2267 29.9997 71.2267H23.333C21.493 71.2267 19.9997 69.7334 19.9997 67.8934V59.8767C15.9163 56.2134 13.333 50.9167 13.333 45C13.333 33.9534 22.2863 25 33.333 25H48.4197C49.8497 25 51.2363 24.53 52.3763 23.67C54.0397 22.4167 56.093 21.6667 58.333 21.6667H61.6663V21.6667Z" stroke="#02D72F" stroke-width="5" stroke-linecap="round" stroke-linejoin="round"/>
</svg>
