<svg width="32" height="32" viewBox="0 0 32 32" fill="none" xmlns="http://www.w3.org/2000/svg">
<path fill-rule="evenodd" clip-rule="evenodd" d="M3 13.3333C3 12.7811 3.44772 12.3333 4 12.3333H28C28.5523 12.3333 29 12.7811 29 13.3333C29 13.8856 28.5523 14.3333 28 14.3333H4C3.44772 14.3333 3 13.8856 3 13.3333Z" fill="white"/>
<path fill-rule="evenodd" clip-rule="evenodd" d="M15.2929 22.6262C15.6834 22.2357 16.3166 22.2357 16.7071 22.6262L18.7071 24.6262C19.0976 25.0168 19.0976 25.6499 18.7071 26.0405C18.3166 26.431 17.6834 26.431 17.2929 26.0405L15.2929 24.0405C14.9024 23.6499 14.9024 23.0168 15.2929 22.6262Z" fill="white"/>
<path fill-rule="evenodd" clip-rule="evenodd" d="M18.7071 24.6262C19.0976 25.0168 19.0976 25.6499 18.7071 26.0405L16.7071 28.0405C16.3166 28.431 15.6834 28.431 15.2929 28.0405C14.9024 27.6499 14.9024 27.0168 15.2929 26.6262L17.2929 24.6262C17.6834 24.2357 18.3166 24.2357 18.7071 24.6262Z" fill="white"/>
<path fill-rule="evenodd" clip-rule="evenodd" d="M13.2929 5.95957C13.6834 5.56904 14.3166 5.56904 14.7071 5.95957L16.7071 7.95957C17.0976 8.35009 17.0976 8.98325 16.7071 9.37378C16.3166 9.7643 15.6834 9.7643 15.2929 9.37378L13.2929 7.37378C12.9024 6.98325 12.9024 6.35009 13.2929 5.95957Z" fill="white"/>
<path fill-rule="evenodd" clip-rule="evenodd" d="M16.7071 3.95956C17.0976 4.35009 17.0976 4.98325 16.7071 5.37378L14.7071 7.37378C14.3166 7.7643 13.6834 7.7643 13.2929 7.37378C12.9024 6.98325 12.9024 6.35009 13.2929 5.95956L15.2929 3.95956C15.6834 3.56904 16.3166 3.56904 16.7071 3.95956Z" fill="white"/>
<path fill-rule="evenodd" clip-rule="evenodd" d="M6.66667 7.66667C5.74562 7.66667 5 8.41229 5 9.33334V22.6667C5 23.5877 5.74562 24.3333 6.66667 24.3333H18C18.5523 24.3333 19 24.7811 19 25.3333C19 25.8856 18.5523 26.3333 18 26.3333H6.66667C4.64105 26.3333 3 24.6923 3 22.6667V9.33334C3 7.30772 4.64105 5.66667 6.66667 5.66667H9.33333C9.88562 5.66667 10.3333 6.11439 10.3333 6.66667C10.3333 7.21896 9.88562 7.66667 9.33333 7.66667H6.66667Z" fill="white"/>
<path fill-rule="evenodd" clip-rule="evenodd" d="M13 6.66667C13 6.11439 13.4477 5.66667 14 5.66667H25.3333C27.359 5.66667 29 7.30772 29 9.33334V22.6667C29 24.6923 27.359 26.3333 25.3333 26.3333H22.6667C22.1144 26.3333 21.6667 25.8856 21.6667 25.3333C21.6667 24.7811 22.1144 24.3333 22.6667 24.3333H25.3333C26.2544 24.3333 27 23.5877 27 22.6667V9.33334C27 8.41229 26.2544 7.66667 25.3333 7.66667H14C13.4477 7.66667 13 7.21896 13 6.66667Z" fill="white"/>
</svg>
