<svg width="81" height="80" viewBox="0 0 81 80" fill="none" xmlns="http://www.w3.org/2000/svg">
<path d="M48.7333 53.3333V16.6667C48.7333 12.9848 45.7485 10 42.0666 10H38.7333C35.0514 10 32.0667 12.9848 32.0667 16.6667V53.3333" stroke="#02D72F" stroke-width="5" stroke-linecap="round" stroke-linejoin="round"/>
<path fill-rule="evenodd" clip-rule="evenodd" d="M8.75913 62.6395C28.7115 72.4534 52.0883 72.4534 72.0407 62.6395C73.0968 62.0432 73.7452 60.9199 73.7332 59.7071V56.6666C73.7332 54.8257 72.2408 53.3333 70.3999 53.3333H10.3999C8.55895 53.3333 7.06657 54.8257 7.06657 56.6666V59.7071C7.05464 60.9199 7.70303 62.0432 8.75913 62.6395Z" stroke="#02D72F" stroke-width="5" stroke-linecap="round" stroke-linejoin="round"/>
<path d="M70.3998 53.3334V45.4692C70.3941 32.1158 61.5616 20.3742 48.7332 16.6667" stroke="#02D72F" stroke-width="5" stroke-linecap="round" stroke-linejoin="round"/>
<path d="M32.0666 16.6667C19.2382 20.3742 10.4056 32.1158 10.3999 45.4692V53.3334" stroke="#02D72F" stroke-width="5" stroke-linecap="round" stroke-linejoin="round"/>
</svg>
