<svg width="32" height="32" viewBox="0 0 32 32" fill="none" xmlns="http://www.w3.org/2000/svg">
<path d="M15.3174 31.7879C12.4975 29.7839 10.0255 27.6695 7.75035 25.3556L7.75158 25.3568C5.7814 23.398 4.04489 21.2095 2.57894 18.8316L2.49408 18.6848C1.03059 16.4185 0.119293 13.6616 0.013528 10.6951L0.0122982 10.6675C0.00491928 10.5132 0 10.3312 0 10.1492C0 7.30575 1.03551 4.71072 2.74251 2.73181L2.73144 2.74436C4.34128 1.05031 6.59185 0 9.08348 0C9.13636 0 9.19047 -9.10104e-08 9.24335 0.00125476H9.23597C11.8346 0.016313 14.2032 1.00765 16.0111 2.63394L16 2.6239C17.7955 1.00765 20.1654 0.016313 22.7616 0.00125476H22.764C22.8083 -9.10104e-08 22.86 0 22.9116 0C25.4045 0 27.6563 1.05031 29.2649 2.74185L29.2673 2.74436C30.9645 4.70946 32 7.3045 32 10.148C32 10.3312 31.9963 10.5132 31.9877 10.6939L31.9889 10.6688C31.8819 13.6628 30.9706 16.4185 29.4715 18.745L29.5071 18.686C27.9563 21.2108 26.2198 23.398 24.257 25.3505L24.2497 25.3581C21.9757 27.6708 19.5038 29.7839 16.8621 31.6687L16.6838 31.7892C16.4919 31.9209 16.2558 32 16.0012 32C15.7467 32 15.5105 31.9209 15.3138 31.7867L15.3187 31.7892L15.3174 31.7879ZM9.23597 2.51096C5.1259 2.51096 2.47194 5.71209 2.47194 10.6675C2.47194 18.74 13.164 27.1287 16 29.2117C18.8347 27.1274 29.5281 18.7287 29.5281 10.6675C29.5281 4.65299 26.0341 2.51096 22.764 2.51096C20.4618 2.53104 18.3969 3.55249 16.9654 5.16874L16.9593 5.17627C16.733 5.46488 16.3874 5.64809 16 5.64809C15.6126 5.64684 15.2683 5.46237 15.0457 5.17501L15.0432 5.1725C14.5894 4.65676 14.0753 4.21003 13.5084 3.83985L13.4789 3.82103C12.2859 3.00161 10.8175 2.51222 9.23597 2.51096ZM9.85088 16.9418V15.6869C9.17202 15.6869 8.62106 15.1247 8.62106 14.4321C8.62106 13.7394 9.17202 13.1772 9.85088 13.1772C9.85088 9.71256 12.6045 6.90295 16 6.90295C19.3955 6.90295 22.1491 9.71256 22.1491 13.1772C22.828 13.1772 23.3789 13.7394 23.3789 14.4321C23.3789 15.1247 22.828 15.6869 22.1491 15.6869V16.9418C22.1491 20.4064 19.3955 23.216 16 23.216C12.6045 23.216 9.85088 20.4064 9.85088 16.9418ZM12.3105 16.9418C12.3105 19.0211 13.9622 20.7063 16 20.7063C18.0378 20.7063 19.6895 19.0211 19.6895 16.9418V15.6869H12.3105V16.9418ZM19.6895 13.1772C19.687 11.5484 18.6736 10.1618 17.2556 9.63727L17.2298 9.62849V13.1772H19.6895ZM14.7702 13.1772V9.62723C13.3251 10.1593 12.3105 11.5472 12.3105 13.176C12.3105 13.176 12.3105 13.176 12.3105 13.1772H14.7702Z" fill="white"/>
</svg>
