<svg width="80" height="80" viewBox="0 0 80 80" fill="none" xmlns="http://www.w3.org/2000/svg">
<path id="Vector" d="M29.7187 0.5L28.9375 1.20312L11.9844 18H3.83333C1.99238 18 0.5 19.4924 0.5 21.3333V54.6667C0.5 56.5076 1.99238 58 3.83333 58H42.6094C46.1348 58 49.2109 55.5098 49.9531 52.0625L55.3437 27.0625C56.3301 22.4434 52.7168 18 48 18H33.625L34.0937 16.125C34.6016 15.7344 34.9238 15.5684 35.6562 14.5625C36.8281 12.9609 38 10.4805 38 7.14062C38 3.57617 34.7773 0.5 30.7344 0.5H29.7187ZM31.5156 5.73437C32.5703 5.93945 33 6.36914 33 7.14062C33 9.39648 32.3164 10.793 31.6719 11.6719C31.0273 12.5508 30.5781 12.7656 30.5781 12.7656L29.7187 13.2344L29.4062 14.25L27.9219 19.875L27.1406 23H48C49.6504 23 50.7637 24.4355 50.4219 26.0469L45.1094 51.0469C44.8555 52.2187 43.8008 53 42.6094 53H15.5V21.5156L31.5156 5.73437ZM5.5 23H10.5V53H5.5V23Z" fill="#02D72F"/>
</svg>
