<svg width="32" height="32" viewBox="0 0 32 32" fill="none" xmlns="http://www.w3.org/2000/svg">
<path fill-rule="evenodd" clip-rule="evenodd" d="M3 11.3333C3 9.67648 4.34315 8.33334 6 8.33334H26C27.6569 8.33334 29 9.67648 29 11.3333V12.6667C29 14.3235 27.6569 15.6667 26 15.6667H18.6667C18.1144 15.6667 17.6667 15.219 17.6667 14.6667C17.6667 14.1144 18.1144 13.6667 18.6667 13.6667H26C26.5523 13.6667 27 13.219 27 12.6667V11.3333C27 10.7811 26.5523 10.3333 26 10.3333H6C5.44772 10.3333 5 10.7811 5 11.3333V12.6667C5 13.219 5.44772 13.6667 6 13.6667H13.3333C13.8856 13.6667 14.3333 14.1144 14.3333 14.6667C14.3333 15.219 13.8856 15.6667 13.3333 15.6667H6C4.34315 15.6667 3 14.3235 3 12.6667V11.3333Z" fill="white"/>
<path fill-rule="evenodd" clip-rule="evenodd" d="M5.33301 13.6667C5.88529 13.6667 6.33301 14.1144 6.33301 14.6667V25.3333C6.33301 26.2538 7.0792 27 7.99967 27H23.9997C24.9201 27 25.6663 26.2538 25.6663 25.3333V14.6667C25.6663 14.1144 26.1141 13.6667 26.6663 13.6667C27.2186 13.6667 27.6663 14.1144 27.6663 14.6667V25.3333C27.6663 27.3584 26.0247 29 23.9997 29H7.99967C5.97463 29 4.33301 27.3584 4.33301 25.3333V14.6667C4.33301 14.1144 4.78072 13.6667 5.33301 13.6667Z" fill="white"/>
<path fill-rule="evenodd" clip-rule="evenodd" d="M13.3337 5C12.4132 5 11.667 5.74619 11.667 6.66667C11.667 7.58714 12.4132 8.33333 13.3337 8.33333H15.0003V6.66667C15.0003 5.74619 14.2541 5 13.3337 5ZM13.3337 3C15.3587 3 17.0003 4.64162 17.0003 6.66667V9.33333C17.0003 9.88562 16.5526 10.3333 16.0003 10.3333H13.3337C11.3086 10.3333 9.66699 8.69171 9.66699 6.66667C9.66699 4.64162 11.3086 3 13.3337 3Z" fill="white"/>
<path fill-rule="evenodd" clip-rule="evenodd" d="M18.6667 5C17.7462 5 17 5.74619 17 6.66667V8.33333H18.6667C19.5871 8.33333 20.3333 7.58714 20.3333 6.66667C20.3333 5.74619 19.5871 5 18.6667 5ZM18.6667 3C20.6917 3 22.3333 4.64162 22.3333 6.66667C22.3333 8.69171 20.6917 10.3333 18.6667 10.3333H16C15.4477 10.3333 15 9.88562 15 9.33333V6.66667C15 4.64162 16.6416 3 18.6667 3Z" fill="white"/>
<path fill-rule="evenodd" clip-rule="evenodd" d="M12.333 10.6667C12.333 9.37801 13.3777 8.33334 14.6663 8.33334H17.333C18.6217 8.33334 19.6663 9.37801 19.6663 10.6667V26.6667C19.6663 27.9553 18.6217 29 17.333 29H14.6663C13.3777 29 12.333 27.9553 12.333 26.6667V10.6667ZM14.6663 10.3333C14.4822 10.3333 14.333 10.4826 14.333 10.6667V26.6667C14.333 26.8508 14.4822 27 14.6663 27H17.333C17.5171 27 17.6663 26.8508 17.6663 26.6667V10.6667C17.6663 10.4826 17.5171 10.3333 17.333 10.3333H14.6663Z" fill="white"/>
</svg>
