<svg width="80" height="80" viewBox="0 0 80 80" fill="none" xmlns="http://www.w3.org/2000/svg">
<path d="M58.341 71.6799L53.3389 66.6778L58.341 61.6757" stroke="#02D72F" stroke-width="5" stroke-linecap="round" stroke-linejoin="round"/>
<path d="M53.3389 66.6778H60.0083C65.5335 66.6778 70.0125 62.1988 70.0125 56.6736" stroke="#02D72F" stroke-width="5" stroke-linecap="round" stroke-linejoin="round"/>
<path d="M21.6592 8.32013L26.6613 13.3222L21.6592 18.3243" stroke="#02D72F" stroke-width="5" stroke-linecap="round" stroke-linejoin="round"/>
<path d="M26.6609 13.3222H19.9915C14.4663 13.3222 9.9873 17.8012 9.9873 23.3264" stroke="#02D72F" stroke-width="5" stroke-linecap="round" stroke-linejoin="round"/>
<path fill-rule="evenodd" clip-rule="evenodd" d="M46.6693 43.3347V58.5216C46.6693 61.1844 44.5106 63.3431 41.8477 63.3431H14.8088C12.146 63.3431 9.9873 61.1844 9.9873 58.5216V41.4868C9.9873 38.8239 12.146 36.6653 14.8088 36.6653H39.9998C41.7687 36.6653 43.4651 37.368 44.7158 38.6187C45.9666 39.8695 46.6693 41.5659 46.6693 43.3347Z" stroke="#02D72F" stroke-width="5" stroke-linecap="round" stroke-linejoin="round"/>
<circle cx="28.3283" cy="50.0042" r="5.00208" stroke="#02D72F" stroke-width="5" stroke-linecap="round" stroke-linejoin="round"/>
<path d="M33.3311 26.6611V21.4784C33.3311 18.8156 35.4897 16.6569 38.1526 16.6569H63.3436C67.027 16.6569 70.013 19.6429 70.013 23.3264V38.5132C70.013 39.7919 69.505 41.0183 68.6008 41.9225C67.6966 42.8267 66.4702 43.3347 65.1915 43.3347H56.6741" stroke="#02D72F" stroke-width="5" stroke-linecap="round" stroke-linejoin="round"/>
<path d="M48.1348 26.4588C49.3982 25.194 51.2406 24.6996 52.9675 25.1619C54.6944 25.6243 56.0433 26.9732 56.5057 28.7001C56.968 30.427 56.4736 32.2694 55.2088 33.5329" stroke="#02D72F" stroke-width="5" stroke-linecap="round" stroke-linejoin="round"/>
</svg>
