<svg width="80" height="80" viewBox="0 0 80 80" fill="none" xmlns="http://www.w3.org/2000/svg">
<path fill-rule="evenodd" clip-rule="evenodd" d="M66.6663 37.2734C66.6663 52.41 55.2897 66.5634 39.9997 70C24.7097 66.5634 13.333 52.41 13.333 37.2734V24.1434C13.333 21.4367 14.9697 18.9967 17.4763 17.9734L34.143 11.1534C37.8963 9.61669 42.103 9.61669 45.8563 11.1534L62.523 17.9734C65.0297 19 66.6663 21.4367 66.6663 24.1434V37.2734V37.2734Z" stroke="#02D72F" stroke-width="5" stroke-linecap="round" stroke-linejoin="round"/>
<path d="M39.9997 28.3333V25" stroke="#02D72F" stroke-width="5" stroke-linecap="round" stroke-linejoin="round"/>
<path d="M39.9997 48.3333V51.6666" stroke="#02D72F" stroke-width="5" stroke-linecap="round" stroke-linejoin="round"/>
<path d="M34.213 45.95C35.0763 47.3634 36.5497 48.34 38.333 48.34H39.9997H41.9863C44.573 48.34 46.6663 46.2434 46.6663 43.66C46.6663 41.5134 45.203 39.6434 43.123 39.1167L36.873 37.5467C34.7963 37.0267 33.333 35.1567 33.333 33.01C33.333 30.4234 35.4297 28.33 38.013 28.33H39.9997H41.6663C43.443 28.33 44.9163 29.3034 45.7763 30.7134" stroke="#02D72F" stroke-width="5" stroke-linecap="round" stroke-linejoin="round"/>
</svg>
