<svg width="16" height="16" viewBox="0 0 16 16" fill="none" xmlns="http://www.w3.org/2000/svg">
<path d="M8.28156 2.61367C9.09979 3.4319 9.09979 4.7585 8.28156 5.57673C7.46334 6.39495 6.13673 6.39495 5.3185 5.57673C4.50028 4.7585 4.50028 3.4319 5.3185 2.61367C6.13673 1.79544 7.46334 1.79544 8.28156 2.61367" stroke="white" stroke-linecap="round" stroke-linejoin="round"/>
<path d="M9.4178 8.47714C8.6384 8.16574 7.724 7.99414 6.8 7.99414C4.3712 7.99414 2 9.17434 2 10.9893V11.5893C2 11.9205 2.2688 12.1893 2.6 12.1893H8.2478" stroke="white" stroke-linecap="round" stroke-linejoin="round"/>
<path d="M11 14C9.3434 14 8 12.6572 8 11C8 9.3776 9.38 7.9982 11.0024 8C12.6584 8.0012 14 9.344 14 11C14 12.6566 12.6572 14 11 14" stroke="white" stroke-linecap="round" stroke-linejoin="round"/>
<path d="M11 9.80017V10.2022" stroke="white" stroke-linecap="round" stroke-linejoin="round"/>
<path d="M11 11.7982V12.2002" stroke="white" stroke-linecap="round" stroke-linejoin="round"/>
<path d="M9.96194 10.4002L10.3099 10.5982" stroke="white" stroke-linecap="round" stroke-linejoin="round"/>
<path d="M11.6959 11.4022L12.0379 11.6002" stroke="white" stroke-linecap="round" stroke-linejoin="round"/>
<path d="M9.96194 11.6002L10.3099 11.4022" stroke="white" stroke-linecap="round" stroke-linejoin="round"/>
<path d="M11.6959 10.5982L12.0379 10.4002" stroke="white" stroke-linecap="round" stroke-linejoin="round"/>
<path d="M11.5661 10.4337C11.8787 10.7462 11.8787 11.253 11.5661 11.5656C11.2535 11.8782 10.7467 11.8782 10.4341 11.5656C10.1216 11.253 10.1216 10.7462 10.4341 10.4337C10.7467 10.1211 11.2535 10.1211 11.5661 10.4337" stroke="white" stroke-linecap="round" stroke-linejoin="round"/>
</svg>
