<svg width="31" height="30" viewBox="0 0 31 30" fill="none" xmlns="http://www.w3.org/2000/svg">
<path fill-rule="evenodd" clip-rule="evenodd" d="M10.2045 14.6014C9.99622 14.6014 9.82663 14.771 9.82663 14.9792V20.2621C9.82663 20.4704 9.99622 20.64 10.2045 20.64H20.3929C20.5989 20.64 20.7692 20.4711 20.7692 20.2621V14.9792C20.7692 14.771 20.5996 14.6014 20.3914 14.6014H10.2045ZM7.56348 14.9792C7.56348 13.5211 8.74631 12.3383 10.2045 12.3383H20.3914C21.8495 12.3383 23.0324 13.5211 23.0324 14.9792V20.2621C23.0324 21.7195 21.8503 22.9031 20.3929 22.9031H10.2045C8.74631 22.9031 7.56348 21.7203 7.56348 20.2621V14.9792Z" fill="white"/>
<path fill-rule="evenodd" clip-rule="evenodd" d="M15.3005 12.3383C15.9255 12.3383 16.4321 12.8449 16.4321 13.4698V21.7715C16.4321 22.3965 15.9255 22.9031 15.3005 22.9031C14.6756 22.9031 14.1689 22.3965 14.1689 21.7715V13.4698C14.1689 12.8449 14.6756 12.3383 15.3005 12.3383Z" fill="white"/>
<path fill-rule="evenodd" clip-rule="evenodd" d="M7.75219 2.52622C5.04288 2.52622 2.84617 4.72293 2.84617 7.43224V22.5262C2.84617 25.2356 5.04288 27.4323 7.75219 27.4323H22.8462C25.5555 27.4323 27.7522 25.2356 27.7522 22.5262V7.43224C27.7522 4.72293 25.5555 2.52622 22.8462 2.52622H7.75219ZM0.583008 7.43224C0.583008 3.47302 3.79297 0.263062 7.75219 0.263062H22.8462C26.8054 0.263062 30.0154 3.47302 30.0154 7.43224V22.5262C30.0154 26.4855 26.8054 29.6954 22.8462 29.6954H7.75219C3.79297 29.6954 0.583008 26.4855 0.583008 22.5262V7.43224Z" fill="white"/>
<path fill-rule="evenodd" clip-rule="evenodd" d="M15.3552 8.05612C16.6396 6.72088 18.7403 6.72088 20.0247 8.05612C21.2839 9.36739 21.2857 11.4757 20.0252 12.7867C18.5723 14.2993 16.4016 14.6015 15.4085 14.6015C14.852 14.6015 14.3781 14.1969 14.2909 13.6472L15.4085 13.4699C14.2909 13.6472 14.2909 13.6475 14.2909 13.6472L14.2905 13.6447L14.2899 13.6409L14.2882 13.6298L14.2829 13.5936C14.2785 13.5634 14.2727 13.5213 14.266 13.4685C14.2526 13.3631 14.2356 13.2146 14.2197 13.0335C14.1881 12.6734 14.1602 12.1739 14.1769 11.6225C14.1934 11.0757 14.2547 10.4463 14.4159 9.83815C14.575 9.23821 14.8526 8.57946 15.3552 8.05612ZM16.4386 12.216C17.113 12.0662 17.8708 11.7626 18.3931 11.2189C18.8104 10.785 18.812 10.0611 18.3933 9.62467C17.9993 9.21555 17.3805 9.21557 16.9866 9.62473C16.8471 9.7701 16.7078 10.0249 16.6035 10.4181C16.5014 10.8033 16.4524 11.2476 16.439 11.691C16.4335 11.8733 16.4341 12.0502 16.4386 12.216Z" fill="white"/>
<path fill-rule="evenodd" clip-rule="evenodd" d="M13.6223 9.62475C13.2273 9.21452 12.6088 9.21523 12.2159 9.62438C11.7968 10.0608 11.7977 10.7844 12.2152 11.2183C12.7374 11.762 13.4958 12.0662 14.1703 12.2161C14.1747 12.0502 14.1754 11.8734 14.1698 11.691C14.1564 11.2476 14.1074 10.8033 14.0053 10.4181C13.9011 10.0249 13.7617 9.77012 13.6223 9.62475ZM15.2003 13.4699C16.3179 13.6472 16.318 13.647 16.318 13.6467L16.3183 13.6447L16.3189 13.6409L16.3206 13.6298L16.326 13.5936C16.3303 13.5634 16.3361 13.5213 16.3428 13.4685C16.3562 13.3632 16.3732 13.2146 16.3891 13.0335C16.4207 12.6734 16.4487 12.1739 16.432 11.6225C16.4154 11.0757 16.3541 10.4463 16.1929 9.83816C16.0338 9.23823 15.7569 8.58009 15.2542 8.05674C13.9707 6.72245 11.8689 6.71821 10.5835 8.05684C9.32429 9.36811 9.32315 11.4758 10.5836 12.7867M15.2003 13.4699L16.318 13.6467C16.2308 14.1964 15.7568 14.6015 15.2003 14.6015C14.2072 14.6015 12.0366 14.2992 10.5836 12.7867" fill="white"/>
</svg>
