<svg width="24" height="24" viewBox="0 0 24 24" fill="none" xmlns="http://www.w3.org/2000/svg">
<path fill-rule="evenodd" clip-rule="evenodd" d="M12 3.75C7.44321 3.75 3.75 7.44321 3.75 12C3.75 16.5568 7.44321 20.25 12 20.25C16.5568 20.25 20.25 16.5568 20.25 12C20.25 7.44321 16.5568 3.75 12 3.75ZM12 2.25C6.61479 2.25 2.25 6.61479 2.25 12C2.25 17.3852 6.61479 21.75 12 21.75C17.3852 21.75 21.75 17.3852 21.75 12C21.75 6.61479 17.3852 2.25 12 2.25Z" fill="#1B2126"/>
<path fill-rule="evenodd" clip-rule="evenodd" d="M9.25 9.83203C9.25 8.31282 10.4808 7.08203 12 7.08203C13.5192 7.08203 14.75 8.31282 14.75 9.83203C14.75 11.0262 13.9717 11.6559 13.4302 12.0209L13.4293 12.0216C12.9717 12.329 12.75 12.5763 12.75 12.999V13.249C12.75 13.6632 12.4142 13.999 12 13.999C11.5858 13.999 11.25 13.6632 11.25 13.249V12.999C11.25 11.7881 12.0379 11.1494 12.5922 10.7768C13.0384 10.476 13.25 10.2377 13.25 9.83203C13.25 9.14125 12.6908 8.58203 12 8.58203C11.3092 8.58203 10.75 9.14125 10.75 9.83203C10.75 10.2462 10.4142 10.582 10 10.582C9.58579 10.582 9.25 10.2462 9.25 9.83203Z" fill="#1B2126"/>
<path fill-rule="evenodd" clip-rule="evenodd" d="M11 16.2527C10.9975 15.6965 11.4487 15.25 11.999 15.25C12.5503 15.25 13 15.6958 13 16.25C13 16.8022 12.5522 17.25 12 17.25C11.4487 17.25 11.0015 16.8037 11 16.2527ZM11.5 16.25H11.75L11.5 16.2518L11.5 16.25ZM11.5 16.25H11.2917H11.5Z" fill="#1B2126"/>
</svg>
