<svg width="40" height="40" viewBox="0 0 32 32" fill="none" xmlns="http://www.w3.org/2000/svg">
<path fill-rule="evenodd" clip-rule="evenodd" d="M19.0293 5.33333C19.0293 4.78104 19.477 4.33333 20.0293 4.33333H24.6666C26.6922 4.33333 28.3333 5.97438 28.3333 7.99999V12.6373C28.3333 13.1896 27.8856 13.6373 27.3333 13.6373C26.781 13.6373 26.3333 13.1896 26.3333 12.6373V7.99999C26.3333 7.07895 25.5877 6.33333 24.6666 6.33333H20.0293C19.477 6.33333 19.0293 5.88561 19.0293 5.33333Z" fill="white"/>
<path fill-rule="evenodd" clip-rule="evenodd" d="M3.66699 7.99999C3.66699 5.97438 5.30804 4.33333 7.33366 4.33333H11.971C12.5233 4.33333 12.971 4.78104 12.971 5.33333C12.971 5.88561 12.5233 6.33333 11.971 6.33333H7.33366C6.41261 6.33333 5.66699 7.07895 5.66699 7.99999V12.6373C5.66699 13.1896 5.21928 13.6373 4.66699 13.6373C4.11471 13.6373 3.66699 13.1896 3.66699 12.6373V7.99999Z" fill="white"/>
<path fill-rule="evenodd" clip-rule="evenodd" d="M4.66699 18.3627C5.21928 18.3627 5.66699 18.8104 5.66699 19.3627V24C5.66699 24.921 6.41261 25.6667 7.33366 25.6667H11.971C12.5233 25.6667 12.971 26.1144 12.971 26.6667C12.971 27.2189 12.5233 27.6667 11.971 27.6667H7.33366C5.30804 27.6667 3.66699 26.0256 3.66699 24V19.3627C3.66699 18.8104 4.11471 18.3627 4.66699 18.3627Z" fill="white"/>
<path fill-rule="evenodd" clip-rule="evenodd" d="M27.3333 18.3627C27.8856 18.3627 28.3333 18.8104 28.3333 19.3627V24C28.3333 26.0256 26.6922 27.6667 24.6666 27.6667H20.0293C19.477 27.6667 19.0293 27.2189 19.0293 26.6667C19.0293 26.1144 19.477 25.6667 20.0293 25.6667H24.6666C25.5877 25.6667 26.3333 24.921 26.3333 24V19.3627C26.3333 18.8104 26.781 18.3627 27.3333 18.3627Z" fill="white"/>
<path fill-rule="evenodd" clip-rule="evenodd" d="M13.246 20.579C13.6626 20.1625 14.3379 20.1625 14.7545 20.579C15.1711 20.9956 15.1711 21.671 14.7545 22.0875C14.3379 22.5041 13.6626 22.5041 13.246 22.0875C12.8295 21.671 12.8295 20.9956 13.246 20.579Z" fill="white"/>
<path fill-rule="evenodd" clip-rule="evenodd" d="M17.246 20.579C17.6626 20.1625 18.3379 20.1625 18.7545 20.579C19.1711 20.9956 19.1711 21.671 18.7545 22.0875C18.3379 22.5041 17.6626 22.5041 17.246 22.0875C16.8295 21.671 16.8295 20.9956 17.246 20.579Z" fill="white"/>
<path fill-rule="evenodd" clip-rule="evenodd" d="M22 9.66666C22.5523 9.66666 23 10.1144 23 10.6667V21.3333C23 21.8856 22.5523 22.3333 22 22.3333C21.4477 22.3333 21 21.8856 21 21.3333V10.6667C21 10.1144 21.4477 9.66666 22 9.66666Z" fill="white"/>
<path fill-rule="evenodd" clip-rule="evenodd" d="M10 9.66666C10.5523 9.66666 11 10.1144 11 10.6667V21.3333C11 21.8856 10.5523 22.3333 10 22.3333C9.44772 22.3333 9 21.8856 9 21.3333V10.6667C9 10.1144 9.44772 9.66666 10 9.66666Z" fill="white"/>
<path fill-rule="evenodd" clip-rule="evenodd" d="M18 9.66666C18.5523 9.66666 19 10.1144 19 10.6667V17.3333C19 17.8856 18.5523 18.3333 18 18.3333C17.4477 18.3333 17 17.8856 17 17.3333V10.6667C17 10.1144 17.4477 9.66666 18 9.66666Z" fill="white"/>
<path fill-rule="evenodd" clip-rule="evenodd" d="M14 9.66666C14.5523 9.66666 15 10.1144 15 10.6667V17.3333C15 17.8856 14.5523 18.3333 14 18.3333C13.4477 18.3333 13 17.8856 13 17.3333V10.6667C13 10.1144 13.4477 9.66666 14 9.66666Z" fill="white"/>
</svg>
