<svg width="32" height="32" viewBox="0 0 32 32" fill="none" xmlns="http://www.w3.org/2000/svg">
<path fill-rule="evenodd" clip-rule="evenodd" d="M20.9832 4.3501C20.072 3.43888 18.5946 3.43888 17.6834 4.35011L16.9763 3.643L17.6834 4.35011C16.7722 5.26133 16.7722 6.73871 17.6834 7.64993L16.9763 8.35704L17.6834 7.64993C18.5946 8.56115 20.072 8.56116 20.9832 7.64993C21.8945 6.73871 21.8945 5.26133 20.9832 4.3501ZM22.3969 2.9353C20.7045 1.24362 17.9613 1.24382 16.2692 2.93589C14.5769 4.62816 14.5769 7.37187 16.2692 9.06414C17.9615 10.7564 20.7052 10.7564 22.3975 9.06414C24.0897 7.37187 24.0897 4.62816 22.3975 2.93589C22.3973 2.93569 22.3971 2.93549 22.3969 2.9353Z" fill="white"/>
<path fill-rule="evenodd" clip-rule="evenodd" d="M11.0645 10.2692C9.37219 8.57693 6.62848 8.57693 4.9362 10.2692L4.9362 10.2692C3.24393 11.9615 3.24392 14.7052 4.9362 16.3975L4.23494 17.0987L4.9362 16.3975C6.62846 18.0897 9.37218 18.0897 11.0645 16.3975L11.7716 17.1046L11.0645 16.3975C12.7567 14.7052 12.7567 11.9615 11.0645 10.2692ZM12.4781 8.85447C10.0048 6.38167 5.99514 6.38184 3.52199 8.85499C1.04866 11.3283 1.04866 15.3384 3.52199 17.8117C5.9953 20.285 10.0053 20.285 12.4787 17.8117C14.952 15.3384 14.952 11.3283 12.4787 8.855C12.4785 8.85482 12.4783 8.85465 12.4781 8.85447Z" fill="white"/>
<path fill-rule="evenodd" clip-rule="evenodd" d="M1.66699 13.3334C1.66699 12.7811 2.11471 12.3334 2.66699 12.3334H13.3337C13.8859 12.3334 14.3337 12.7811 14.3337 13.3334C14.3337 13.8857 13.8859 14.3334 13.3337 14.3334H2.66699C2.11471 14.3334 1.66699 13.8857 1.66699 13.3334Z" fill="white"/>
<path fill-rule="evenodd" clip-rule="evenodd" d="M27.4463 15.2178C26.2635 14.035 24.3473 14.035 23.1645 15.2178L16.5512 21.8311C15.3684 23.0139 15.3684 24.9301 16.5512 26.1129C17.734 27.2957 19.6501 27.2957 20.833 26.1129L27.4463 19.4996L27.4466 19.4993C28.6288 18.318 28.6293 16.4008 27.4463 15.2178ZM28.8605 13.8036C26.8966 11.8397 23.7141 11.8397 21.7503 13.8036L15.137 20.4169C13.1731 22.3808 13.1731 25.5633 15.137 27.5271C17.1008 29.491 20.2833 29.491 22.2472 27.5271L28.8602 20.9141C30.8246 18.9513 30.8242 15.7673 28.8605 13.8036Z" fill="white"/>
<path fill-rule="evenodd" clip-rule="evenodd" d="M18.4667 17.1329C18.8572 16.7424 19.4904 16.7424 19.8809 17.1329L25.5343 22.7863C25.9248 23.1768 25.9248 23.8099 25.5343 24.2005C25.1437 24.591 24.5106 24.591 24.1201 24.2005L18.4667 18.5471C18.0762 18.1566 18.0762 17.5234 18.4667 17.1329Z" fill="white"/>
</svg>
