<svg width="81" height="80" viewBox="0 0 81 80" fill="none" xmlns="http://www.w3.org/2000/svg">
<path fill-rule="evenodd" clip-rule="evenodd" d="M47.3936 24.6149L56.1842 33.4056L34.2052 55.3845L25.4146 46.5939L47.3936 24.6149Z" stroke="#02D72F" stroke-width="5" stroke-linecap="round" stroke-linejoin="round"/>
<path fill-rule="evenodd" clip-rule="evenodd" d="M13.7668 36.2634C14.1307 35.8994 14.7208 35.8994 15.0848 36.2634L44.5364 65.715C44.9003 66.0789 44.9003 66.669 44.5364 67.033L39.2614 72.3079C38.8975 72.6719 38.3073 72.6719 37.9434 72.3079L8.49182 42.8564C8.12785 42.4924 8.12786 41.9023 8.49182 41.5383L13.7668 36.2634Z" stroke="#02D72F" stroke-width="5" stroke-linecap="round" stroke-linejoin="round"/>
<path fill-rule="evenodd" clip-rule="evenodd" d="M13.7672 49.4525C14.1312 49.0885 14.7213 49.0885 15.0853 49.4525L31.3509 65.7181C31.7149 66.082 31.7149 66.6722 31.3509 67.0361L26.076 72.3111C25.712 72.675 25.1219 72.675 24.7579 72.3111L8.49231 56.0455C8.12834 55.6815 8.12834 55.0914 8.49231 54.7274L13.7672 49.4525Z" stroke="#02D72F" stroke-width="5" stroke-linecap="round" stroke-linejoin="round"/>
<path fill-rule="evenodd" clip-rule="evenodd" d="M67.8333 43.739C67.4694 44.103 66.8793 44.103 66.5153 43.739L37.0637 14.2874C36.6998 13.9235 36.6998 13.3334 37.0637 12.9694L42.3387 7.69445C42.7026 7.33048 43.2928 7.33048 43.6567 7.69445L73.1083 37.146C73.4722 37.51 73.4722 38.1001 73.1083 38.4641L67.8333 43.739Z" stroke="#02D72F" stroke-width="5" stroke-linecap="round" stroke-linejoin="round"/>
<path fill-rule="evenodd" clip-rule="evenodd" d="M67.8343 30.5475C67.4703 30.9115 66.8802 30.9115 66.5163 30.5475L50.2507 14.2819C49.8867 13.918 49.8867 13.3278 50.2507 12.9639L55.5256 7.68895C55.8896 7.32498 56.4797 7.32498 56.8437 7.68895L73.1093 23.9545C73.4732 24.3185 73.4732 24.9086 73.1093 25.2726L67.8343 30.5475Z" stroke="#02D72F" stroke-width="5" stroke-linecap="round" stroke-linejoin="round"/>
</svg>
