<svg width="40" height="40" viewBox="0 0 40 40" fill="none" xmlns="http://www.w3.org/2000/svg">
<path fill-rule="evenodd" clip-rule="evenodd" d="M21.6667 35H13.3333C8.73096 35 5 31.269 5 26.6667V13.3333C5 8.73096 8.73096 5 13.3333 5H26.6667C31.269 5 35 8.73096 35 13.3333V21.6667C35 29.0305 29.0305 35 21.6667 35Z" stroke="white" stroke-width="2.5" stroke-linecap="round" stroke-linejoin="round"/>
<path d="M34.9997 13.3333V21.6667C34.9997 23.5076 33.5073 25 31.6663 25H28.333C25.5716 25 23.333 27.2386 23.333 30V31.6667C23.333 33.5076 21.8406 35 19.9997 35H13.333" stroke="white" stroke-width="2.5" stroke-linecap="round" stroke-linejoin="round"/>
<path d="M19.0311 26.1414L16.91 27.2562C16.2081 27.6251 15.3576 27.5636 14.7161 27.0974C14.0746 26.6313 13.7533 25.8413 13.8874 25.0598L14.2924 22.699C14.4083 22.0234 14.1844 21.334 13.6937 20.8553L11.9774 19.1813C11.4098 18.6277 11.2056 17.7999 11.4507 17.0458C11.6959 16.2918 12.3478 15.7422 13.1324 15.6282L15.5033 15.2836C16.182 15.185 16.7686 14.7587 17.072 14.1436L18.132 11.995C18.4829 11.2837 19.2072 10.8333 20.0004 10.8333C20.7936 10.8333 21.5179 11.2837 21.8688 11.995L22.9287 14.1436C23.2321 14.7586 23.8187 15.1849 24.4974 15.2836L26.8683 15.6282C27.6529 15.7422 28.3048 16.2917 28.55 17.0458C28.7951 17.7998 28.5909 18.6277 28.0233 19.1813L26.307 20.8553" stroke="white" stroke-width="2.5" stroke-linecap="round" stroke-linejoin="round"/>
</svg>
