<svg width="80" height="80" viewBox="0 0 80 80" fill="none" xmlns="http://www.w3.org/2000/svg">
<path fill-rule="evenodd" clip-rule="evenodd" d="M20 70H13.3333C11.4933 70 10 68.5066 10 66.6666V46.6666C10 44.8266 11.4933 43.3333 13.3333 43.3333H20C21.84 43.3333 23.3333 44.8266 23.3333 46.6666V66.6666C23.3333 68.5066 21.84 70 20 70Z" stroke="#02D72F" stroke-width="5" stroke-linecap="round" stroke-linejoin="round"/>
<path d="M43.333 56.6667H51.1097C52.553 56.6667 53.9563 56.2 55.1097 55.3334L63.163 49.2934C65.173 47.7867 67.9863 47.9867 69.763 49.7634V49.7634C71.7363 51.7367 71.7363 54.9334 69.763 56.9034L62.853 63.8134C60.993 65.6734 58.6197 66.9434 56.0397 67.46L46.273 69.4134C44.3363 69.8 42.3397 69.7534 40.423 69.2734L31.5897 67.0667C30.533 66.8 29.4497 66.6667 28.3597 66.6667H23.333" stroke="#02D72F" stroke-width="5" stroke-linecap="round" stroke-linejoin="round"/>
<path d="M43.333 56.6666H48.283C51.073 56.6666 53.333 54.4066 53.333 51.6166V50.6066C53.333 48.29 51.7563 46.27 49.5097 45.71L41.8697 43.8C40.6263 43.49 39.353 43.3333 38.073 43.3333V43.3333C34.983 43.3333 31.9597 44.2466 29.3897 45.9633L23.333 50" stroke="#02D72F" stroke-width="5" stroke-linecap="round" stroke-linejoin="round"/>
<path d="M57.2293 17.1841C60.9237 20.8785 60.9237 26.8682 57.2293 30.5626C53.535 34.2569 47.5452 34.2569 43.8509 30.5626C40.1565 26.8682 40.1565 20.8785 43.8509 17.1841C47.5452 13.4897 53.535 13.4897 57.2293 17.1841" stroke="#02D72F" stroke-width="5" stroke-linecap="round" stroke-linejoin="round"/>
<path d="M48.77 14.5834C48.46 12.7 47.6 10.89 46.1467 9.43669C42.4533 5.74335 36.4633 5.74335 32.77 9.43669C29.0767 13.13 29.0767 19.12 32.77 22.8134C35.07 25.1134 38.2567 25.9767 41.2267 25.4134" stroke="#02D72F" stroke-width="5" stroke-linecap="round" stroke-linejoin="round"/>
</svg>
