<svg width="8" height="14" viewBox="0 0 8 14" fill="none" xmlns="http://www.w3.org/2000/svg">
<path d="M7.50008 7.00016C7.50004 7.19906 7.421 7.38979 7.28033 7.53041L1.28033 13.5304C1.13969 13.671 0.948957 13.75 0.750084 13.75C0.551211 13.75 0.36048 13.671 0.219834 13.5304C0.0792307 13.3898 0.000244141 13.199 0.000244141 13.0002C0.000244141 12.8013 0.0792307 12.6106 0.219834 12.4699L5.68958 7.00016L0.219834 1.53041C0.0792307 1.38976 0.000244141 1.19903 0.000244141 1.00016C0.000244141 0.801287 0.0792307 0.610556 0.219834 0.46991C0.36048 0.329307 0.551211 0.25032 0.750084 0.25032C0.948957 0.25032 1.13969 0.329307 1.28033 0.46991L7.28033 6.46991C7.421 6.61053 7.50004 6.80126 7.50008 7.00016Z" fill="#1B2126"/>
</svg>
