<svg width="24" height="24" viewBox="0 0 24 24" fill="none" xmlns="http://www.w3.org/2000/svg">
<g clip-path="url(#clip0_11993_2596)">
<path d="M12.7492 8.2501C12.9481 8.25014 13.1388 8.32919 13.2794 8.46985L19.2794 14.4698C19.42 14.6105 19.499 14.8012 19.499 15.0001C19.499 15.199 19.42 15.3897 19.2794 15.5303C19.1388 15.671 18.9481 15.7499 18.7492 15.7499C18.5503 15.7499 18.3596 15.671 18.2189 15.5303L12.7492 10.0606L7.27943 15.5304C7.13879 15.671 6.94806 15.7499 6.74918 15.7499C6.55031 15.7499 6.35958 15.671 6.21893 15.5304C6.07833 15.3897 5.99934 15.199 5.99934 15.0001C5.99934 14.8012 6.07833 14.6105 6.21893 14.4699L12.2189 8.46985C12.3596 8.32919 12.5503 8.25014 12.7492 8.2501Z" fill="#1B2126"/>
</g>
<defs>
<clipPath id="clip0_11993_2596">
<rect width="24" height="24" fill="white"/>
</clipPath>
</defs>
</svg>
