<svg width="16" height="16" viewBox="0 0 16 16" fill="none" xmlns="http://www.w3.org/2000/svg">
<path fill-rule="evenodd" clip-rule="evenodd" d="M12.3555 8C12.3555 7.65654 12.6336 7.37779 12.9777 7.37779C13.3218 7.37779 13.5999 7.65654 13.5999 8V11.7333C13.5999 12.7625 12.7624 13.6 11.7333 13.6H4.26669C3.23754 13.6 2.40004 12.7625 2.40004 11.7333V4.2667C2.40004 3.23756 3.23754 2.40005 4.26669 2.40005H7.99999C8.34408 2.40005 8.62221 2.67881 8.62221 3.02227C8.62221 3.36574 8.34408 3.64449 7.99999 3.64449H4.26669C3.92323 3.64449 3.64447 3.92386 3.64447 4.2667V11.7333C3.64447 12.0761 3.92323 12.3555 4.26669 12.3555H11.7333C12.0768 12.3555 12.3555 12.0761 12.3555 11.7333V8ZM11.4708 3.64947L10.4858 3.64449C10.1417 3.64262 9.86484 3.36263 9.86671 3.01916C9.86858 2.67632 10.1467 2.40005 10.4889 2.40005H10.492L12.979 2.4125C13.3213 2.41437 13.5981 2.69188 13.5981 3.0341L13.6 5.51052C13.6 5.8546 13.3219 6.13336 12.9784 6.13336H12.9778C12.6343 6.13336 12.3556 5.85523 12.3556 5.51176L12.355 4.52493L8.43997 8.43991C8.31863 8.56124 8.15935 8.62222 8.00006 8.62222C7.84077 8.62222 7.68148 8.56124 7.56015 8.43991C7.31687 8.19663 7.31687 7.80339 7.56015 7.5601L11.4708 3.64947Z" fill="#798286"/>
</svg>
