<svg width="8" height="14" viewBox="0 0 8 14" fill="none" xmlns="http://www.w3.org/2000/svg">
<path d="M0.499916 6.99984C0.499959 6.80094 0.579004 6.61021 0.719666 6.46959L6.71967 0.46959C6.86031 0.328987 7.05104 0.25 7.24992 0.25C7.44879 0.25 7.63952 0.328987 7.78017 0.46959C7.92077 0.610236 7.99976 0.800967 7.99976 0.99984C7.99976 1.19871 7.92077 1.38944 7.78017 1.53009L2.31042 6.99984L7.78017 12.4696C7.92077 12.6102 7.99976 12.801 7.99976 12.9998C7.99976 13.1987 7.92077 13.3894 7.78017 13.5301C7.63952 13.6707 7.44879 13.7497 7.24992 13.7497C7.05104 13.7497 6.86031 13.6707 6.71967 13.5301L0.719666 7.53009C0.579004 7.38947 0.499959 7.19874 0.499916 6.99984Z" fill="#1B2126"/>
</svg>
