<svg width="29" height="32" viewBox="0 0 29 32" fill="none" xmlns="http://www.w3.org/2000/svg">
<path d="M13.7045 31.8424C11.039 30.1191 8.76859 28.0611 6.87166 25.6902L6.82827 25.6343C4.94961 23.3536 3.37131 20.7281 2.20985 17.8878L2.13676 17.6857C0.784582 14.3543 0 10.4908 0 6.4434C0 6.39429 0 6.34518 0 6.29493V6.30293C0 5.67252 0.511635 5.16088 1.14204 5.16088C1.14547 5.16088 1.14889 5.16088 1.15118 5.16088H1.39329C6.28922 5.16088 9.2631 3.91834 10.8962 2.8768C11.8555 2.30578 12.6481 1.55318 13.2477 0.6601L13.2637 0.633833C13.4498 0.255817 13.8324 0 14.2755 0C14.7118 0 15.0898 0.247823 15.2759 0.610992L15.2794 0.617844C15.9178 1.53262 16.7309 2.28066 17.6754 2.82655L17.7108 2.84597C19.3862 3.88751 22.4286 5.13005 27.4181 5.16088C28.0463 5.16431 28.5533 5.6748 28.5533 6.30293C28.5533 6.34747 28.5533 6.4 28.5533 6.45368C28.5533 10.4976 27.7699 14.3589 26.3469 17.8935L26.42 17.6879C25.1854 20.7303 23.6071 23.3559 21.6862 25.6891L21.7285 25.6365C19.787 28.0634 17.5143 30.1213 14.9585 31.7773L14.8477 31.8447C14.6832 31.9429 14.4845 32 14.2721 32C14.0597 32 13.861 31.9418 13.6908 31.8413L13.6965 31.8447L13.7045 31.8424ZM2.30464 7.4324C2.48622 13.805 4.80914 19.6031 8.57445 24.1656L8.53676 24.1188C10.1973 26.1722 12.0851 27.9446 14.1887 29.4361L14.2755 29.4944C16.466 27.9446 18.3549 26.1722 19.9743 24.1713L20.0154 24.1188C23.7453 19.5997 26.0671 13.7981 26.2453 7.46096L26.2464 7.42213C19.3268 7.13091 15.831 4.6207 14.2915 3.02413C12.7703 4.65268 9.28137 7.22455 2.30464 7.4324ZM16.5596 22.8625V9.15803C16.5596 8.52762 17.0712 8.01599 17.7016 8.01599C18.8494 8.08109 19.8213 8.77202 20.2884 9.74961L20.2964 9.76788C20.7874 10.6141 21.1929 11.5917 21.4612 12.6253L21.4795 12.7075C21.7993 13.8335 22.0745 15.2017 22.2493 16.6007L22.2641 16.7423C22.2687 16.78 22.271 16.8234 22.271 16.868C22.271 17.4984 21.7593 18.01 21.1289 18.01H18.8448V22.8625C18.8448 23.4929 18.3332 24.0046 17.7028 24.0046C17.0724 24.0046 16.5596 23.4929 16.5596 22.8625ZM18.8437 15.7248H19.8053C19.6408 14.7449 19.4558 13.9261 19.2308 13.1232L19.2719 13.2968C19.1246 12.7577 18.9784 12.3226 18.8117 11.8989L18.8437 11.9914V15.7248ZM9.70735 22.8625V17.9038C8.35632 17.6879 7.23826 16.8542 6.63526 15.7065L6.62384 15.6837C6.41256 15.4758 6.28123 15.188 6.28123 14.8682V14.8671V9.15689C6.28123 8.52648 6.79286 8.01485 7.42327 8.01485C8.05368 8.01485 8.56531 8.52648 8.56531 9.15689V14.2961C8.67837 14.9002 9.12034 15.3787 9.69593 15.5409L9.70735 15.5432V9.15689C9.70735 8.52648 10.219 8.01485 10.8494 8.01485C11.4798 8.01485 11.9914 8.52648 11.9914 9.15689V15.5432C12.5773 15.3787 13.0204 14.9002 13.1323 14.3064L13.1335 14.2961V9.15689C13.1335 8.52648 13.6451 8.01485 14.2755 8.01485C14.9059 8.01485 15.4176 8.52648 15.4176 9.15689V14.8671V14.8682C15.4176 15.188 15.2862 15.4769 15.0749 15.6837C14.4605 16.8542 13.3413 17.6868 12.0154 17.8992L11.9914 17.9026V22.8625C11.9914 23.4929 11.4798 24.0046 10.8494 24.0046C10.219 24.0046 9.70735 23.4929 9.70735 22.8625Z" fill="white"/>
</svg>
