<svg width="32" height="32" viewBox="0 0 32 32" fill="none" xmlns="http://www.w3.org/2000/svg">
<path d="M22.8556 21.7107L25.2398 26.7406L22.3507 27.0934L20.2889 29.0944L17.8439 23.9185" stroke="#1B2126" stroke-width="2" stroke-miterlimit="10"/>
<path d="M25.8878 14.9556C26.7758 9.35541 22.9558 4.09573 17.3556 3.20775C11.7555 2.31978 6.49581 6.13975 5.60783 11.7399C4.71985 17.3401 8.53982 22.5997 14.14 23.4877C19.7401 24.3757 24.9998 20.5557 25.8878 14.9556Z" stroke="#1B2126" stroke-width="2" stroke-miterlimit="10"/>
<path d="M11.7009 17.4838L12.4673 15.7868C13.2884 16.3829 14.5109 16.8026 15.6787 16.8026C17.0106 16.8026 17.552 16.3586 17.552 15.7625C17.552 13.944 11.9016 15.1908 11.9016 11.5841C11.9016 9.92974 13.2336 8.55518 16.001 8.55518C17.2235 8.55518 18.4704 8.84712 19.3766 9.41884L18.6832 11.1279C17.7831 10.617 16.8525 10.3616 15.9888 10.3616C14.6569 10.3616 14.1399 10.8603 14.1399 11.4746C14.1399 13.2688 19.7902 12.0281 19.7902 15.5983C19.7902 17.2222 18.4399 18.615 15.6665 18.615C14.1277 18.615 12.5707 18.1589 11.707 17.4898L11.7009 17.4838Z" fill="#1B2126"/>
<path d="M15.855 7.05882H16.6396V8.60368H15.2468V7.66095C15.2468 7.32643 15.5205 7.05273 15.855 7.05273V7.05882Z" fill="#1B2126"/>
<path d="M16.0374 20.0322H15.2528V18.4874H16.6456V19.4301C16.6456 19.7646 16.3719 20.0383 16.0374 20.0383V20.0322Z" fill="#1B2126"/>
<path d="M8.63554 21.7107L6.25134 26.7406L9.14036 27.0934L11.2022 29.0944L13.6472 23.9185" stroke="#1B2126" stroke-width="2" stroke-miterlimit="10"/>
<path d="M17.3556 23.488C22.9558 22.6001 26.7758 17.3404 25.8878 11.7402C24.9998 6.14008 19.7401 2.32011 14.14 3.20809C8.53982 4.09607 4.71985 9.35574 5.60783 14.9559C6.49581 20.5561 11.7555 24.376 17.3556 23.488Z" stroke="#1B2126" stroke-width="2" stroke-miterlimit="10"/>
</svg>
