<svg width="80" height="80" viewBox="0 0 80 80" fill="none" xmlns="http://www.w3.org/2000/svg">
<path fill-rule="evenodd" clip-rule="evenodd" d="M56.6815 39.1667C49.0461 39.161 42.5 45.7017 42.5 53.3367C42.5 61.1587 48.8434 67.5 56.6667 67.5C64.4923 67.5 70.8333 61.1563 70.8333 53.3334C70.8333 45.5128 64.4976 39.1724 56.6815 39.1667L56.6815 39.1667ZM56.6667 72.5C46.0833 72.5 37.5 63.9214 37.5 53.3367C37.5 42.9384 46.2873 34.159 56.6852 34.1667C67.2624 34.1744 75.8333 42.7539 75.8333 53.3334C75.8333 63.9171 67.2544 72.5 56.6667 72.5Z" fill="#02D72F"/>
<path fill-rule="evenodd" clip-rule="evenodd" d="M4.16699 22.8333C4.16699 21.4526 5.28628 20.3333 6.66699 20.3333H70.0003C71.381 20.3333 72.5003 21.4526 72.5003 22.8333C72.5003 24.214 71.381 25.3333 70.0003 25.3333H6.66699C5.28628 25.3333 4.16699 24.214 4.16699 22.8333Z" fill="#02D72F"/>
<path fill-rule="evenodd" clip-rule="evenodd" d="M4.16699 16.6667C4.16699 11.6026 8.26961 7.5 13.3337 7.5H63.3337C68.3977 7.5 72.5003 11.6026 72.5003 16.6667V43.3333C72.5003 44.714 71.381 45.8333 70.0003 45.8333C68.6196 45.8333 67.5003 44.714 67.5003 43.3333V16.6667C67.5003 14.364 65.6363 12.5 63.3337 12.5H13.3337C11.031 12.5 9.16699 14.364 9.16699 16.6667V46.6667C9.16699 48.9693 11.031 50.8333 13.3337 50.8333H40.0003C41.381 50.8333 42.5003 51.9526 42.5003 53.3333C42.5003 54.714 41.381 55.8333 40.0003 55.8333H13.3337C8.26961 55.8333 4.16699 51.7307 4.16699 46.6667V16.6667Z" fill="#02D72F"/>
<path fill-rule="evenodd" clip-rule="evenodd" d="M52.334 55.2067V57.7067H61.0007V55.2067H52.334ZM47.334 54.3733C47.334 52.0726 49.1999 50.2067 51.5007 50.2067H61.834C64.1347 50.2067 66.0007 52.0726 66.0007 54.3733V58.54C66.0007 60.8473 64.1314 62.7067 61.834 62.7067H51.5007C49.1999 62.7067 47.334 60.8407 47.334 58.54V54.3733Z" fill="#02D72F"/>
<path fill-rule="evenodd" clip-rule="evenodd" d="M56.6667 47.29C55.7474 47.29 55 48.0374 55 48.9566V52.7066C55 54.0874 53.8807 55.2066 52.5 55.2066C51.1193 55.2066 50 54.0874 50 52.7066V48.9566C50 45.2759 52.986 42.29 56.6667 42.29C60.3474 42.29 63.3333 45.2759 63.3333 48.9566V52.7066C63.3333 54.0874 62.214 55.2066 60.8333 55.2066C59.4526 55.2066 58.3333 54.0874 58.3333 52.7066V48.9566C58.3333 48.0374 57.586 47.29 56.6667 47.29Z" fill="#02D72F"/>
</svg>
