<svg width="81" height="80" viewBox="0 0 81 80" fill="none" xmlns="http://www.w3.org/2000/svg">
<path fill-rule="evenodd" clip-rule="evenodd" d="M63.5899 20.5133L66.4732 21.1433C69.1132 21.72 70.6865 24.4433 69.8665 27.02L68.9699 29.8333C68.4265 31.5433 68.9265 33.41 70.2532 34.62L72.4365 36.6067C74.4332 38.4267 74.4332 41.5733 72.4365 43.3933L70.2532 45.38C68.9265 46.5867 68.4265 48.4567 68.9699 50.1667L69.8665 52.98C70.6865 55.5567 69.1132 58.28 66.4732 58.8567L63.5899 59.4867C61.8365 59.87 60.4699 61.2367 60.0865 62.99L59.4565 65.8733C58.8799 68.5133 56.1565 70.0867 53.5799 69.2667L50.7665 68.37C49.0565 67.8267 47.1899 68.3267 45.9799 69.6533L43.9932 71.8367C42.1732 73.8333 39.0265 73.8333 37.2065 71.8367L35.2199 69.6533C34.0132 68.3267 32.1432 67.8267 30.4332 68.37L27.6199 69.2667C25.0432 70.0867 22.3199 68.5133 21.7432 65.8733L21.1132 62.99C20.7299 61.2367 19.3632 59.87 17.6099 59.4867L14.7265 58.8567C12.0865 58.28 10.5132 55.5567 11.3332 52.98L12.2299 50.1667C12.7732 48.4567 12.2732 46.59 10.9465 45.38L8.76654 43.3933C6.76988 41.5733 6.76988 38.4267 8.76654 36.6067L10.9499 34.62C12.2765 33.4133 12.7765 31.5433 12.2332 29.8333L11.3332 27.02C10.5132 24.4433 12.0865 21.72 14.7265 21.1433L17.6099 20.5133C19.3632 20.13 20.7299 18.7633 21.1132 17.01L21.7432 14.1267C22.3199 11.4867 25.0432 9.91333 27.6199 10.7333L30.4332 11.63C32.1432 12.1733 34.0099 11.6733 35.2199 10.3467L37.2065 8.16333C39.0265 6.16667 42.1732 6.16667 43.9932 8.16333L45.9799 10.3467C47.1865 11.6733 49.0565 12.1733 50.7665 11.63L53.5799 10.7333C56.1565 9.91333 58.8799 11.4867 59.4565 14.1267L60.0865 17.01C60.4699 18.7633 61.8365 20.13 63.5899 20.5133Z" stroke="#02D72F" stroke-width="5" stroke-linecap="round" stroke-linejoin="round"/>
<path d="M30.5999 50L50.5999 30" stroke="#02D72F" stroke-width="5" stroke-linecap="round" stroke-linejoin="round"/>
<path d="M31.4299 30C30.9699 30 30.5966 30.3734 30.5999 30.8334C30.5999 31.2934 30.9733 31.6667 31.4333 31.6667C31.8933 31.6667 32.2666 31.2934 32.2666 30.8334C32.2666 30.3734 31.8933 30 31.4299 30" stroke="#02D72F" stroke-width="5" stroke-linecap="round" stroke-linejoin="round"/>
<path d="M49.7632 48.3333C49.3032 48.3333 48.9299 48.7067 48.9332 49.1667C48.9332 49.6267 49.3065 50 49.7665 50C50.2265 50 50.5999 49.6267 50.5999 49.1667C50.5999 48.7067 50.2265 48.3333 49.7632 48.3333" stroke="#02D72F" stroke-width="5" stroke-linecap="round" stroke-linejoin="round"/>
</svg>
