<svg width="18" height="20" viewBox="0 0 18 20" fill="none" xmlns="http://www.w3.org/2000/svg">
<path fill-rule="evenodd" clip-rule="evenodd" d="M7.76241 1.26269C8.44587 0.577937 9.55395 0.579054 10.2373 1.26243L16.9443 7.96943C17.4598 8.48493 17.75 9.18463 17.75 9.91376V18.4998C17.75 18.914 17.4142 19.2498 17 19.2498H11.5C11.0858 19.2498 10.75 18.914 10.75 18.4998V13.9998C10.75 13.033 9.96679 12.2498 9 12.2498C8.03321 12.2498 7.25 13.033 7.25 13.9998V18.4998C7.25 18.914 6.91421 19.2498 6.5 19.2498H1C0.585786 19.2498 0.25 18.914 0.25 18.4998V9.91376C0.25 9.18463 0.540176 8.48493 1.05567 7.96943L7.76241 1.26269C7.76255 1.26255 7.76227 1.26283 7.76241 1.26269ZM9 10.7498C10.7952 10.7498 12.25 12.2045 12.25 13.9998V17.7498H16.25V9.91376C16.25 9.5829 16.1182 9.2646 15.8837 9.03009L9.17667 2.32309C9.07819 2.22461 8.92059 2.22559 8.82401 2.32241L2.11633 9.03009C1.88182 9.2646 1.75 9.5829 1.75 9.91376V17.7498H5.75V13.9998C5.75 12.2045 7.20479 10.7498 9 10.7498Z" fill="#1B2126"/>
</svg>
