<svg width="24" height="24" viewBox="0 0 24 24" fill="none" xmlns="http://www.w3.org/2000/svg">
<path fill-rule="evenodd" clip-rule="evenodd" d="M13.2376 10.7626C12.5541 10.0791 11.4461 10.0791 10.7627 10.7626L10.2324 10.2322L10.7627 10.7626C10.0793 11.446 10.0793 12.554 10.7627 13.2374L10.2324 13.7678L10.7627 13.2374C11.4461 13.9209 12.5541 13.9209 13.2376 13.2374C13.921 12.554 13.921 11.446 13.2376 10.7626ZM14.2978 9.70146C13.0285 8.4327 10.9711 8.43285 9.70203 9.7019C8.43282 10.9711 8.43282 13.0289 9.70203 14.2981C10.9712 15.5673 13.029 15.5673 14.2982 14.2981C15.5674 13.0289 15.5674 10.9711 14.2982 9.7019C14.2981 9.70175 14.2979 9.70161 14.2978 9.70146Z" fill="#1B2126"/>
<path fill-rule="evenodd" clip-rule="evenodd" d="M9.97172 4.91355C9.80188 4.7437 9.54257 4.70149 9.32746 4.80904L8.77746 5.08404C8.59328 5.17613 8.47339 5.36392 8.46785 5.57276C8.46784 5.5731 8.46783 5.57344 8.46782 5.57377L8.44989 6.40902C8.44989 6.40912 8.44989 6.40892 8.44989 6.40902C8.42612 7.52946 7.51139 8.42322 6.39205 8.42322H5.55505C5.31554 8.42322 5.10188 8.57698 5.02569 8.80503L4.83126 9.38932C4.76601 9.58421 4.81373 9.80104 4.9588 9.95256L5.53885 10.5586C5.53884 10.5586 5.53886 10.5586 5.53885 10.5586C6.31286 11.3673 6.29871 12.6462 5.50738 13.4376L4.91538 14.0296C4.74554 14.1994 4.70332 14.4587 4.81087 14.6738L5.08587 15.2238C5.17869 15.4095 5.36681 15.5281 5.57251 15.5324L6.41085 15.5504C6.41075 15.5504 6.41095 15.5504 6.41085 15.5504C7.53129 15.5742 8.42505 16.4889 8.42505 17.6082V18.4452C8.42505 18.6847 8.5788 18.8984 8.80686 18.9746M8.80686 18.9746L9.38986 19.1686C9.58652 19.2343 9.80327 19.1862 9.95343 19.0424L10.5594 18.4624C10.5594 18.4624 10.5595 18.4624 10.5594 18.4624C11.3681 17.6884 12.6471 17.7026 13.4384 18.4939L14.0304 19.0859C14.2002 19.2557 14.4595 19.298 14.6746 19.1904L15.2246 18.9154C15.4103 18.8226 15.529 18.6345 15.5332 18.4288L15.5512 17.5904C15.5512 17.5905 15.5512 17.5903 15.5512 17.5904C15.575 16.47 16.4897 15.5762 17.6091 15.5762H18.4461C18.6856 15.5762 18.8992 15.4225 18.9754 15.1944L19.1694 14.6114C19.2351 14.4148 19.187 14.198 19.0433 14.0479L18.4633 13.4418C17.6892 12.6332 17.7034 11.3542 18.4947 10.5629L19.0867 9.97089C19.2566 9.80105 19.2988 9.54174 19.1912 9.32663L18.9162 8.77663C18.8234 8.591 18.6353 8.47231 18.4296 8.46807L17.5913 8.45006C17.5912 8.45006 17.5914 8.45006 17.5913 8.45006C16.4708 8.42629 15.5771 7.51156 15.5771 6.39222V5.55522C15.5771 5.31571 15.4233 5.10205 15.1952 5.02586L14.6122 4.83186L14.611 4.83143C14.4156 4.76603 14.1985 4.81418 14.0481 4.95754C14.048 4.95762 14.0482 4.95746 14.0481 4.95754L13.4427 5.53702C13.4427 5.53703 13.4427 5.53701 13.4427 5.53702C12.634 6.31103 11.3551 6.29688 10.5637 5.50555L9.97172 4.91355M8.65664 3.4674C9.44954 3.07096 10.4062 3.22674 11.0324 3.85289L11.6244 4.44489C11.839 4.65956 12.1861 4.66339 12.4054 4.45342L13.0122 3.87267C13.5636 3.34641 14.362 3.16659 15.0863 3.40875C15.0861 3.40866 15.0866 3.40884 15.0863 3.40875L15.6689 3.60259C16.5086 3.8825 17.0771 4.66886 17.0771 5.55522V6.39222C17.0771 6.69678 17.3194 6.944 17.6229 6.95039L18.4605 6.96838C19.2246 6.98438 19.9168 7.42364 20.2579 8.10581L20.5329 8.65581C20.9293 9.44871 20.7735 10.4054 20.1474 11.0316L19.5554 11.6236C19.3407 11.8382 19.3369 12.1853 19.5469 12.4046L20.1268 13.0106C20.1268 13.0106 20.1269 13.0106 20.1268 13.0106C20.6549 13.5622 20.8346 14.3599 20.5927 15.085L20.3987 15.668C20.1188 16.5078 19.3324 17.0762 18.4461 17.0762H17.6091C17.3045 17.0762 17.0573 17.3186 17.0509 17.622L17.0329 18.4597C17.0329 18.4599 17.0329 18.4595 17.0329 18.4597C17.0169 19.2237 16.5776 19.916 15.8955 20.257L15.3455 20.532C14.5526 20.9285 13.5959 20.7727 12.9697 20.1466L12.3777 19.5546C12.1631 19.3399 11.816 19.3361 11.5967 19.546L10.9907 20.126C10.9907 20.126 10.9907 20.126 10.9907 20.126C10.4391 20.654 9.64135 20.8337 8.91625 20.5919L8.33325 20.3979C7.4935 20.1179 6.92505 19.3316 6.92505 18.4452V17.6082C6.92505 17.3037 6.68268 17.0565 6.37926 17.0501L5.54159 17.0321C4.77755 17.0161 4.08532 16.5768 3.74423 15.8946L3.46923 15.3446C3.07279 14.5517 3.22857 13.595 3.85472 12.9689L4.44672 12.3769C4.66139 12.1622 4.66522 11.8152 4.45526 11.5958L3.87531 10.9899C3.87528 10.9899 3.87533 10.9899 3.87531 10.9899C3.34662 10.4376 3.16623 9.63875 3.4086 8.91388C3.40852 8.91413 3.40868 8.91363 3.4086 8.91388L3.60242 8.33142C3.88233 7.49167 4.66869 6.92322 5.55505 6.92322H6.39205C6.69661 6.92322 6.94383 6.68085 6.95022 6.37743L6.96828 5.53667C6.9871 4.77592 7.42312 4.08416 8.10664 3.7424L8.65664 3.4674Z" fill="#1B2126"/>
</svg>
