<svg width="16" height="16" viewBox="0 0 16 16" fill="none" xmlns="http://www.w3.org/2000/svg">
<path fill-rule="evenodd" clip-rule="evenodd" d="M12.3555 7.99997C12.3555 7.65651 12.6336 7.37776 12.9777 7.37776C13.3218 7.37776 13.5999 7.65651 13.5999 7.99997V11.7333C13.5999 12.7624 12.7624 13.5999 11.7333 13.5999H4.26669C3.23754 13.5999 2.40004 12.7624 2.40004 11.7333V4.26667C2.40004 3.23753 3.23754 2.40002 4.26669 2.40002H7.99999C8.34408 2.40002 8.62221 2.67878 8.62221 3.02224C8.62221 3.3657 8.34408 3.64446 7.99999 3.64446H4.26669C3.92323 3.64446 3.64447 3.92383 3.64447 4.26667V11.7333C3.64447 12.0761 3.92323 12.3555 4.26669 12.3555H11.7333C12.0768 12.3555 12.3555 12.0761 12.3555 11.7333V7.99997ZM11.4708 3.64944L10.4858 3.64446C10.1417 3.64259 9.86484 3.3626 9.86671 3.01913C9.86858 2.67629 10.1467 2.40002 10.4889 2.40002H10.492L12.979 2.41247C13.3213 2.41434 13.5981 2.69185 13.5981 3.03406L13.6 5.51049C13.6 5.85457 13.3219 6.13333 12.9784 6.13333H12.9778C12.6343 6.13333 12.3556 5.85519 12.3556 5.51173L12.355 4.5249L8.43997 8.43988C8.31863 8.56121 8.15935 8.62219 8.00006 8.62219C7.84077 8.62219 7.68148 8.56121 7.56015 8.43988C7.31687 8.1966 7.31687 7.80336 7.56015 7.56007L11.4708 3.64944Z" fill="#02D72F"/>
</svg>
