<svg width="81" height="80" viewBox="0 0 81 80" fill="none" xmlns="http://www.w3.org/2000/svg">
<path fill-rule="evenodd" clip-rule="evenodd" d="M32.4634 7.4875C33.8441 7.4875 34.9634 8.60679 34.9634 9.9875V15.4908H46.637V9.9875C46.637 8.60679 47.7563 7.4875 49.137 7.4875C50.5177 7.4875 51.637 8.60679 51.637 9.9875V15.99C51.637 18.0278 50.1786 20.4908 47.4696 20.4908H34.1307C31.4217 20.4908 29.9634 18.0278 29.9634 15.99V9.9875C29.9634 8.60679 31.0827 7.4875 32.4634 7.4875Z" fill="#02D72F"/>
<path fill-rule="evenodd" clip-rule="evenodd" d="M27.4614 12.4875C25.1573 12.4875 23.292 14.3528 23.292 16.6569V63.343C23.292 65.6472 25.1573 67.5125 27.4614 67.5125H54.1392C56.4434 67.5125 58.3087 65.6472 58.3087 63.343V16.6569C58.3087 14.3528 56.4434 12.4875 54.1392 12.4875H27.4614ZM18.292 16.6569C18.292 11.5914 22.3959 7.4875 27.4614 7.4875H54.1392C59.2048 7.4875 63.3087 11.5914 63.3087 16.6569V63.343C63.3087 68.4086 59.2048 72.5125 54.1392 72.5125H27.4614C22.3959 72.5125 18.292 68.4086 18.292 63.343V16.6569Z" fill="#02D72F"/>
</svg>
