<svg width="80" height="80" viewBox="0 0 80 80" fill="none" xmlns="http://www.w3.org/2000/svg">
<path fill-rule="evenodd" clip-rule="evenodd" d="M57.3658 60.1322C58.3421 59.1559 59.925 59.1559 60.9013 60.1322L68.4346 67.6656C69.411 68.6419 69.411 70.2248 68.4346 71.2011C67.4583 72.1774 65.8754 72.1774 64.8991 71.2011L57.3658 63.6678C56.3895 62.6915 56.3895 61.1085 57.3658 60.1322Z" fill="#02D72F"/>
<path fill-rule="evenodd" clip-rule="evenodd" d="M22.6346 60.1322C23.6109 61.1085 23.6109 62.6915 22.6346 63.6678L15.1013 71.2011C14.125 72.1774 12.542 72.1774 11.5657 71.2011C10.5894 70.2248 10.5894 68.6419 11.5657 67.6656L19.0991 60.1322C20.0754 59.1559 21.6583 59.1559 22.6346 60.1322Z" fill="#02D72F"/>
<path fill-rule="evenodd" clip-rule="evenodd" d="M30.7548 21.0121C18.4252 26.1191 12.5702 40.2542 17.6771 52.5837C22.7841 64.9133 36.9192 70.7684 49.2488 65.6614C61.5783 60.5544 67.4334 46.4193 62.3264 34.0898C57.2198 21.7611 43.0863 15.906 30.7574 21.011C30.7565 21.0114 30.7557 21.0118 30.7548 21.0121ZM28.8414 16.3926C13.9605 22.5563 6.89389 39.6163 13.0576 54.4972L13.0576 54.4972C19.2213 69.378 36.2814 76.4447 51.1622 70.2809L50.2363 68.0457L51.1622 70.2809C66.043 64.1172 73.1097 47.0572 66.946 32.1764C60.7822 17.2955 43.7222 10.2289 28.8414 16.3926Z" fill="#02D72F"/>
<path fill-rule="evenodd" clip-rule="evenodd" d="M23.4143 9.35869C24.3024 10.4159 24.1653 11.9929 23.108 12.8809L13.108 21.2809C12.0508 22.169 10.4739 22.0319 9.5858 20.9746C8.69773 19.9174 8.83486 18.3405 9.89208 17.4524L19.8921 9.0524C20.9493 8.16434 22.5263 8.30147 23.4143 9.35869Z" fill="#02D72F"/>
<path fill-rule="evenodd" clip-rule="evenodd" d="M56.6192 9.39202C57.5073 8.3348 59.0843 8.19768 60.1415 9.08574L70.1415 17.4857C71.1987 18.3738 71.3358 19.9508 70.4478 21.008C69.5597 22.0652 67.9827 22.2023 66.9255 21.3143L56.9255 12.9143C55.8683 12.0262 55.7312 10.4492 56.6192 9.39202Z" fill="#02D72F"/>
<path fill-rule="evenodd" clip-rule="evenodd" d="M39.1667 28.94C40.5475 28.94 41.6667 30.0593 41.6667 31.44V43.8197L51.3017 49.6956C52.4805 50.4145 52.8534 51.9529 52.1345 53.1317C51.4156 54.3105 49.8772 54.6833 48.6984 53.9644L37.8651 47.3577C37.1208 46.9039 36.6667 46.0951 36.6667 45.2233V31.44C36.6667 30.0593 37.786 28.94 39.1667 28.94Z" fill="#02D72F"/>
</svg>
