<svg width="32" height="33" viewBox="0 0 32 33" fill="none" xmlns="http://www.w3.org/2000/svg">
<path d="M22.8554 22.2109L25.2396 27.2409L22.3506 27.5936L20.2888 29.5947L17.8438 24.4188" stroke="#1B2126" stroke-width="2" stroke-miterlimit="10"/>
<path d="M25.8878 15.4585C26.7758 9.85834 22.9558 4.59866 17.3556 3.71068C11.7555 2.82271 6.49581 6.64268 5.60783 12.2428C4.71985 17.843 8.53982 23.1027 14.14 23.9906C19.7401 24.8786 24.9998 21.0586 25.8878 15.4585Z" stroke="#1B2126" stroke-width="2" stroke-miterlimit="10"/>
<path d="M11.7031 17.9872L12.4695 16.2903C13.2906 16.8863 14.5131 17.306 15.6808 17.306C17.0128 17.306 17.5541 16.862 17.5541 16.2659C17.5541 14.4474 11.9038 15.6942 11.9038 12.0875C11.9038 10.4332 13.2358 9.05859 16.0032 9.05859C17.2257 9.05859 18.4726 9.35054 19.3788 9.92226L18.6854 11.6313C17.7853 11.1204 16.8547 10.865 15.991 10.865C14.659 10.865 14.1421 11.3637 14.1421 11.978C14.1421 13.7723 19.7924 12.5315 19.7924 16.1017C19.7924 17.7256 18.4421 19.1185 15.6687 19.1185C14.1299 19.1185 12.5729 18.6623 11.7092 17.9933L11.7031 17.9872Z" fill="#1B2126"/>
<path d="M15.8582 7.56077H16.6428V9.10563H15.25V8.1629C15.25 7.82838 15.5237 7.55469 15.8582 7.55469V7.56077Z" fill="#1B2126"/>
<path d="M16.0402 20.533H15.2556V18.9881H16.6484V19.9308C16.6484 20.2654 16.3747 20.5391 16.0402 20.5391V20.533Z" fill="#1B2126"/>
<path d="M8.6342 22.2109L6.25 27.2409L9.13902 27.5936L11.2009 29.5947L13.6459 24.4188" stroke="#1B2126" stroke-width="2" stroke-miterlimit="10"/>
<path d="M17.3556 23.9885C22.9558 23.1006 26.7758 17.8409 25.8878 12.2407C24.9998 6.64057 19.7401 2.8206 14.14 3.70858C8.53982 4.59656 4.71985 9.85623 5.60783 15.4564C6.49581 21.0565 11.7555 24.8765 17.3556 23.9885Z" stroke="#1B2126" stroke-width="2" stroke-miterlimit="10"/>
</svg>
