<svg width="24" height="24" viewBox="0 0 24 24" fill="none" xmlns="http://www.w3.org/2000/svg">
<path fill-rule="evenodd" clip-rule="evenodd" d="M20.2622 10.0535C19.765 9.55638 18.959 9.55638 18.4619 10.0535L17.9315 9.52319L18.4619 10.0535C17.9647 10.5507 17.9647 11.3567 18.4619 11.8538L17.9315 12.3841L18.4619 11.8538C18.959 12.3509 19.765 12.3509 20.2622 11.8538C20.7593 11.3567 20.7593 10.5507 20.2622 10.0535ZM21.322 8.992C20.239 7.90993 18.4839 7.91022 17.4012 8.99286C16.3183 10.0758 16.3183 11.8315 17.4012 12.9145C18.4841 13.9974 20.2399 13.9974 21.3228 12.9145C22.4057 11.8315 22.4057 10.0758 21.3228 8.99286C21.3225 8.99257 21.3223 8.99229 21.322 8.992Z" fill="#1B2126"/>
<path fill-rule="evenodd" clip-rule="evenodd" d="M13.6723 6.44269C12.7487 5.5191 11.2512 5.5191 10.3276 6.44269C9.40405 7.36629 9.40405 8.86372 10.3276 9.78731C11.2512 10.7109 12.7487 10.7109 13.6723 9.78731C14.5958 8.86371 14.5958 7.36628 13.6723 6.44269ZM14.7325 5.38165C13.2231 3.87266 10.7762 3.87278 9.26698 5.38203L9.26698 5.38203C7.75761 6.89141 7.7576 9.3386 9.26698 10.848L9.79157 10.3234L9.26698 10.848C10.7764 12.3573 13.2235 12.3573 14.7329 10.848L14.2026 10.3176L14.7329 10.848C16.2423 9.33859 16.2423 6.8914 14.7329 5.38203C14.7328 5.3819 14.7327 5.38178 14.7325 5.38165Z" fill="#1B2126"/>
<path fill-rule="evenodd" clip-rule="evenodd" d="M5.53816 10.0535C5.04103 9.55638 4.23501 9.55638 3.73787 10.0535L3.20754 9.52319L3.73787 10.0535C3.24074 10.5507 3.24074 11.3567 3.73787 11.8538L3.20754 12.3841L3.73787 11.8538C4.23501 12.3509 5.04103 12.3509 5.53816 11.8538C6.0353 11.3567 6.0353 10.5507 5.53816 10.0535ZM6.59797 8.992C5.51497 7.90993 3.75985 7.91022 2.67721 8.99286C1.59429 10.0758 1.59429 11.8315 2.67721 12.9145C3.76014 13.9974 5.5159 13.9974 6.59882 12.9145C7.68175 11.8315 7.68175 10.0758 6.59882 8.99286C6.59854 8.99257 6.59825 8.99229 6.59797 8.992Z" fill="#1B2126"/>
<path fill-rule="evenodd" clip-rule="evenodd" d="M18.949 15.4043C18.949 14.9901 19.2848 14.6543 19.699 14.6543H20.5C22.2952 14.6543 23.75 16.1091 23.75 17.9043V19.0003C23.75 19.4145 23.4142 19.7503 23 19.7503C22.5858 19.7503 22.25 19.4145 22.25 19.0003V17.9043C22.25 16.9375 21.4668 16.1543 20.5 16.1543H19.699C19.2848 16.1543 18.949 15.8185 18.949 15.4043Z" fill="#1B2126"/>
<path fill-rule="evenodd" clip-rule="evenodd" d="M3.5 16.1543C2.53321 16.1543 1.75 16.9375 1.75 17.9043V19.0003C1.75 19.4145 1.41421 19.7503 1 19.7503C0.585786 19.7503 0.25 19.4145 0.25 19.0003V17.9043C0.25 16.1091 1.70479 14.6543 3.5 14.6543H4.301C4.71521 14.6543 5.051 14.9901 5.051 15.4043C5.051 15.8185 4.71521 16.1543 4.301 16.1543H3.5Z" fill="#1B2126"/>
<path fill-rule="evenodd" clip-rule="evenodd" d="M5.91 17.3994C5.91 15.0522 7.81279 13.1494 10.16 13.1494H13.839C16.1862 13.1494 18.089 15.0522 18.089 17.3994V19.0004C18.089 19.4146 17.7532 19.7504 17.339 19.7504C16.9248 19.7504 16.589 19.4146 16.589 19.0004V17.3994C16.589 15.8806 15.3578 14.6494 13.839 14.6494H10.16C8.64122 14.6494 7.41 15.8806 7.41 17.3994V19.0004C7.41 19.4146 7.07422 19.7504 6.66 19.7504C6.24579 19.7504 5.91 19.4146 5.91 19.0004V17.3994Z" fill="#1B2126"/>
</svg>
