<svg width="32" height="32" viewBox="0 0 32 32" fill="none" xmlns="http://www.w3.org/2000/svg">
<path fill-rule="evenodd" clip-rule="evenodd" d="M18.6367 9.84601L22.153 13.3623L13.3614 22.1539L9.84513 18.6376L18.6367 9.84601Z" stroke="white" stroke-width="2.5" stroke-linecap="round" stroke-linejoin="round"/>
<path fill-rule="evenodd" clip-rule="evenodd" d="M4.79117 14.9008C5.15514 14.5368 5.74525 14.5368 6.10922 14.9008L17.099 25.8906C17.463 26.2545 17.463 26.8447 17.099 27.2086L15.7799 28.5278C15.4159 28.8917 14.8258 28.8917 14.4618 28.5278L3.47202 17.538C3.10806 17.174 3.10806 16.5839 3.47203 16.2199L4.79117 14.9008Z" stroke="white" stroke-width="2.5" stroke-linecap="round" stroke-linejoin="round"/>
<path fill-rule="evenodd" clip-rule="evenodd" d="M4.79117 20.1764C5.15514 19.8124 5.74525 19.8124 6.10922 20.1764L11.8246 25.8918C12.1886 26.2558 12.1886 26.8459 11.8246 27.2099L10.5055 28.529C10.1415 28.893 9.5514 28.893 9.18744 28.529L3.47203 22.8136C3.10806 22.4496 3.10806 21.8595 3.47203 21.4956L4.79117 20.1764Z" stroke="white" stroke-width="2.5" stroke-linecap="round" stroke-linejoin="round"/>
<path fill-rule="evenodd" clip-rule="evenodd" d="M27.2088 17.1002C26.8449 17.4642 26.2547 17.4642 25.8908 17.1002L14.901 6.1104C14.537 5.74643 14.537 5.15632 14.901 4.79235L16.2201 3.47321C16.5841 3.10924 17.1742 3.10924 17.5382 3.47321L28.528 14.463C28.8919 14.827 28.8919 15.4171 28.528 15.781L27.2088 17.1002Z" stroke="white" stroke-width="2.5" stroke-linecap="round" stroke-linejoin="round"/>
<path fill-rule="evenodd" clip-rule="evenodd" d="M27.2088 11.8236C26.8449 12.1876 26.2547 12.1876 25.8908 11.8236L20.1754 6.10823C19.8114 5.74427 19.8114 5.15416 20.1754 4.79019L21.4945 3.47104C21.8585 3.10707 22.4486 3.10707 22.8126 3.47104L28.528 9.18645C28.8919 9.55042 28.8919 10.1405 28.528 10.5045L27.2088 11.8236Z" stroke="white" stroke-width="2.5" stroke-linecap="round" stroke-linejoin="round"/>
</svg>
