<svg
  width="16"
  height="16"
  viewBox="0 0 16 16"
  fill="none"
  xmlns="http://www.w3.org/2000/svg"
>
  <path
    fillRule="evenodd"
    clipRule="evenodd"
    d="M7.23733 8.76267C6.45733 7.98267 5.86933 7.10933 5.47866 6.22333C5.396 6.036 5.44466 5.81667 5.58933 5.672L6.13533 5.12667C6.58266 4.67933 6.58266 4.04667 6.192 3.656L5.40933 2.87333C4.88866 2.35267 4.04466 2.35267 3.524 2.87333L3.08933 3.308C2.59533 3.802 2.38933 4.51467 2.52266 5.22133C2.852 6.96333 3.864 8.87067 5.49666 10.5033C7.12933 12.136 9.03666 13.148 10.7787 13.4773C11.4853 13.6107 12.198 13.4047 12.692 12.9107L13.126 12.4767C13.6467 11.956 13.6467 11.112 13.126 10.5913L12.344 9.80933C11.9533 9.41867 11.32 9.41867 10.93 9.80933L10.328 10.412C10.1833 10.5567 9.964 10.6053 9.77666 10.5227C8.89066 10.1313 8.01733 9.54267 7.23733 8.76267Z"
    stroke="#798286"
    strokeLinecap="round"
    strokeLinejoin="round"
  />
</svg>
