<svg width="24" height="24" viewBox="0 0 24 24" fill="none" xmlns="http://www.w3.org/2000/svg">
<path fill-rule="evenodd" clip-rule="evenodd" d="M10.7624 3.26318C11.4459 2.57843 12.554 2.57954 13.2373 3.26292L19.9443 9.96992C20.4598 10.4854 20.75 11.1851 20.75 11.9143V20.5002C20.75 20.9145 20.4142 21.2502 20 21.2502H14.5C14.0858 21.2502 13.75 20.9145 13.75 20.5002V16.0002C13.75 15.0335 12.9668 14.2502 12 14.2502C11.0332 14.2502 10.25 15.0335 10.25 16.0002V20.5002C10.25 20.9145 9.91421 21.2502 9.5 21.2502H4C3.58579 21.2502 3.25 20.9145 3.25 20.5002V11.9143C3.25 11.1851 3.54018 10.4854 4.05567 9.96992L10.7624 3.26318C10.7626 3.26304 10.7623 3.26332 10.7624 3.26318ZM12 12.7502C13.7952 12.7502 15.25 14.205 15.25 16.0002V19.7502H19.25V11.9143C19.25 11.5834 19.1182 11.2651 18.8837 11.0306L12.1767 4.32358C12.0782 4.2251 11.9206 4.22608 11.824 4.3229L5.11633 11.0306C4.88182 11.2651 4.75 11.5834 4.75 11.9143V19.7502H8.75V16.0002C8.75 14.205 10.2048 12.7502 12 12.7502Z" fill="#1B2126"/>
</svg>
