<svg width="24" height="24" viewBox="0 0 24 24" fill="none" xmlns="http://www.w3.org/2000/svg">
<g clip-path="url(#clip0_11993_2743)">
<path d="M11.9998 15.7498C11.8009 15.7498 11.6102 15.6708 11.4696 15.5301L5.46959 9.53009C5.32899 9.38944 5.25 9.19871 5.25 8.99984C5.25 8.80097 5.32899 8.61024 5.46959 8.46959C5.61024 8.32899 5.80097 8.25 5.99984 8.25C6.19871 8.25 6.38944 8.32899 6.53009 8.46959L11.9998 13.9393L17.4696 8.46959C17.6102 8.32899 17.801 8.25 17.9998 8.25C18.1987 8.25 18.3894 8.32899 18.5301 8.46959C18.6707 8.61024 18.7497 8.80097 18.7497 8.99984C18.7497 9.19871 18.6707 9.38944 18.5301 9.53009L12.5301 15.5301C12.3895 15.6708 12.1987 15.7498 11.9998 15.7498Z" fill="#A0AAB4"/>
</g>
<defs>
<clipPath id="clip0_11993_2743">
<rect width="24" height="24" fill="white"/>
</clipPath>
</defs>
</svg>
