<svg width="24" height="24" viewBox="0 0 24 24" fill="none" xmlns="http://www.w3.org/2000/svg">
<path d="M17.1417 16.2832L18.9299 20.0557L16.7631 20.3202L15.2167 21.821L13.3829 17.9391" stroke="#1B2126" stroke-width="1.5" stroke-miterlimit="10"/>
<path d="M19.4158 11.2169C20.0818 7.0168 17.2168 3.07205 13.0167 2.40606C8.81661 1.74008 4.87186 4.60506 4.20587 8.80517C3.53989 13.0053 6.40487 16.95 10.605 17.616C14.8051 18.282 18.7499 15.417 19.4158 11.2169Z" stroke="#1B2126" stroke-width="1.5" stroke-miterlimit="10"/>
<path d="M8.77563 13.1129L9.3504 11.8403C9.96621 12.2873 10.8831 12.602 11.7589 12.602C12.7579 12.602 13.1639 12.269 13.1639 11.822C13.1639 10.4581 8.92617 11.3932 8.92617 8.68818C8.92617 7.44743 9.92516 6.4165 12.0007 6.4165C12.9176 6.4165 13.8527 6.63546 14.5324 7.06425L14.0124 8.34606C13.3372 7.96289 12.6393 7.7713 11.9916 7.7713C10.9926 7.7713 10.6048 8.14535 10.6048 8.60608C10.6048 9.95175 14.8426 9.02118 14.8426 11.6988C14.8426 12.9168 13.8299 13.9614 11.7498 13.9614C10.5957 13.9614 9.42794 13.6193 8.7802 13.1175L8.77563 13.1129Z" fill="#1B2126"/>
<path d="M11.8912 5.2946H12.4797V6.45325H11.4351V5.7462C11.4351 5.49531 11.6403 5.29004 11.8912 5.29004V5.2946Z" fill="#1B2126"/>
<path d="M12.0281 15.0242H11.4396V13.8656H12.4843V14.5726C12.4843 14.8235 12.279 15.0288 12.0281 15.0288V15.0242Z" fill="#1B2126"/>
<path d="M6.47663 16.2832L4.68848 20.0557L6.85524 20.3202L8.40163 21.821L10.2354 17.9391" stroke="#1B2126" stroke-width="1.5" stroke-miterlimit="10"/>
<path d="M13.0167 17.6164C17.2168 16.9504 20.0818 13.0057 19.4158 8.80554C18.7499 4.60543 14.8051 1.74045 10.605 2.40643C6.40487 3.07242 3.53989 7.01717 4.20587 11.2173C4.87186 15.4174 8.81661 18.2824 13.0167 17.6164Z" stroke="#1B2126" stroke-width="1.5" stroke-miterlimit="10"/>
</svg>
