<svg width="80" height="80" viewBox="0 0 80 80" fill="none" xmlns="http://www.w3.org/2000/svg">
<path d="M24.1665 20C24.1665 21.3807 25.2858 22.5 26.6665 22.5C28.0472 22.5 29.1665 21.3807 29.1665 20H24.1665ZM29.1665 6.66663C29.1665 5.28591 28.0472 4.16663 26.6665 4.16663C25.2858 4.16663 24.1665 5.28591 24.1665 6.66663H29.1665ZM50.8332 20C50.8332 21.3807 51.9525 22.5 53.3332 22.5C54.7139 22.5 55.8332 21.3807 55.8332 20H50.8332ZM55.8332 6.66663C55.8332 5.28591 54.7139 4.16663 53.3332 4.16663C51.9525 4.16663 50.8332 5.28591 50.8332 6.66663H55.8332ZM29.1665 20V6.66663H24.1665V20H29.1665ZM55.8332 20V6.66663H50.8332V20H55.8332Z" fill="#02D72F"/>
<path d="M10 29.9999H70" stroke="#02D72F" stroke-width="5" stroke-linecap="round" stroke-linejoin="round"/>
<path fill-rule="evenodd" clip-rule="evenodd" d="M10 19.9999V63.3333C10 67.0166 12.9833 69.9999 16.6667 69.9999H63.3333C67.0167 69.9999 70 67.0166 70 63.3333V19.9999C70 16.3166 67.0167 13.3333 63.3333 13.3333H16.6667C12.9833 13.3333 10 16.3166 10 19.9999Z" stroke="#02D72F" stroke-width="5" stroke-linecap="round" stroke-linejoin="round"/>
<path d="M44.1067 41.6666C47.6333 41.6666 50 44.77 50 47.66C50 53.5266 40.18 58.3333 40 58.3333" stroke="#02D72F" stroke-width="5" stroke-linecap="round" stroke-linejoin="round"/>
<path d="M35.8933 41.6666C32.3667 41.6666 30 44.77 30 47.66C30 53.5266 39.82 58.3333 40 58.3333" stroke="#02D72F" stroke-width="5" stroke-linecap="round" stroke-linejoin="round"/>
<path d="M40 43.4499C40.7667 42.6099 42.09 41.6666 44.1067 41.6666" stroke="#02D72F" stroke-width="5" stroke-linecap="round" stroke-linejoin="round"/>
<path d="M40.0002 43.4499C39.2336 42.6099 37.9102 41.6666 35.8936 41.6666" stroke="#02D72F" stroke-width="5" stroke-linecap="round" stroke-linejoin="round"/>
</svg>
