<svg width="40" height="40" viewBox="0 0 40 40" fill="none" xmlns="http://www.w3.org/2000/svg">
<path fill-rule="evenodd" clip-rule="evenodd" d="M10 35H6.66667C5.74667 35 5 34.2533 5 33.3333V23.3333C5 22.4133 5.74667 21.6667 6.66667 21.6667H10C10.92 21.6667 11.6667 22.4133 11.6667 23.3333V33.3333C11.6667 34.2533 10.92 35 10 35Z" stroke="#02D72F" stroke-width="2.5" stroke-linecap="round" stroke-linejoin="round"/>
<path d="M21.6667 28.3333H25.5551C26.2767 28.3333 26.9784 28.1 27.5551 27.6667L31.5817 24.6467C32.5867 23.8933 33.9934 23.9933 34.8817 24.8817V24.8817C35.8684 25.8683 35.8684 27.4667 34.8817 28.4517L31.4267 31.9067C30.4967 32.8367 29.3101 33.4717 28.0201 33.73L23.1367 34.7067C22.1684 34.9 21.1701 34.8767 20.2117 34.6367L15.7951 33.5333C15.2667 33.4 14.7251 33.3333 14.1801 33.3333H11.6667" stroke="#02D72F" stroke-width="2.5" stroke-linecap="round" stroke-linejoin="round"/>
<path d="M21.6667 28.3333H24.1417C25.5367 28.3333 26.6667 27.2033 26.6667 25.8083V25.3033C26.6667 24.145 25.8784 23.135 24.7551 22.855L20.9351 21.9C20.3134 21.745 19.6767 21.6667 19.0367 21.6667V21.6667C17.4917 21.6667 15.9801 22.1233 14.6951 22.9817L11.6667 25" stroke="#02D72F" stroke-width="2.5" stroke-linecap="round" stroke-linejoin="round"/>
<path d="M28.6147 8.59205C30.4618 10.4392 30.4618 13.4341 28.6147 15.2813C26.7675 17.1285 23.7726 17.1285 21.9254 15.2813C20.0782 13.4341 20.0782 10.4392 21.9254 8.59205C23.7726 6.74487 26.7675 6.74487 28.6147 8.59205" stroke="#02D72F" stroke-width="2.5" stroke-linecap="round" stroke-linejoin="round"/>
<path d="M24.385 7.29167C24.23 6.35 23.8 5.445 23.0733 4.71834C21.2267 2.87167 18.2317 2.87167 16.385 4.71834C14.5383 6.565 14.5383 9.56 16.385 11.4067C17.535 12.5567 19.1283 12.9883 20.6133 12.7067" stroke="#02D72F" stroke-width="2.5" stroke-linecap="round" stroke-linejoin="round"/>
</svg>
