<svg width="38" height="38" viewBox="0 0 38 38" fill="none" xmlns="http://www.w3.org/2000/svg">
<path fill-rule="evenodd" clip-rule="evenodd" d="M9.89587 11.0833C9.89587 10.4274 10.4275 9.89575 11.0834 9.89575H26.9167C27.5725 9.89575 28.1042 10.4274 28.1042 11.0833C28.1042 11.7391 27.5725 12.2708 26.9167 12.2708H11.0834C10.4275 12.2708 9.89587 11.7391 9.89587 11.0833Z" fill="#1B2126"/>
<path fill-rule="evenodd" clip-rule="evenodd" d="M9.89587 17.4167C9.89587 16.7609 10.4275 16.2292 11.0834 16.2292H15.8334C16.4892 16.2292 17.0209 16.7609 17.0209 17.4167C17.0209 18.0726 16.4892 18.6042 15.8334 18.6042H11.0834C10.4275 18.6042 9.89587 18.0726 9.89587 17.4167Z" fill="#1B2126"/>
<path fill-rule="evenodd" clip-rule="evenodd" d="M9.5 5.9375C7.53249 5.9375 5.9375 7.53249 5.9375 9.5V22.1667C5.9375 24.1342 7.53249 25.7292 9.5 25.7292H12.6667C13.3225 25.7292 13.8542 26.2608 13.8542 26.9167C13.8542 27.5725 13.3225 28.1042 12.6667 28.1042H9.5C6.22081 28.1042 3.5625 25.4459 3.5625 22.1667V9.5C3.5625 6.22081 6.22081 3.5625 9.5 3.5625H28.5C31.7792 3.5625 34.4375 6.22081 34.4375 9.5V19C34.4375 19.6558 33.9058 20.1875 33.25 20.1875C32.5942 20.1875 32.0625 19.6558 32.0625 19V9.5C32.0625 7.53249 30.4675 5.9375 28.5 5.9375H9.5Z" fill="#1B2126"/>
<path fill-rule="evenodd" clip-rule="evenodd" d="M24.5417 18.6042C23.8859 18.6042 23.3542 19.1359 23.3542 19.7917V26.9164C23.3542 27.3967 23.0649 27.8297 22.6211 28.0135C22.1774 28.1973 21.6666 28.0957 21.327 27.756L20.4 26.829C20.2028 26.6317 19.9352 26.5209 19.6562 26.5209C19.3773 26.5209 19.1097 26.6317 18.9125 26.829C18.9104 26.831 18.9083 26.8331 18.9063 26.8352C18.5572 27.1899 18.5045 27.7414 18.781 28.1561L21.8527 32.7644C21.8527 32.7644 21.8527 32.7645 21.8527 32.7644C22.2197 33.3151 22.8378 33.6459 23.4996 33.6459H29.51C29.51 33.6459 29.51 33.6459 29.51 33.6459C30.5081 33.6459 31.3501 32.9026 31.4738 31.9121L32.047 27.3255C32.047 27.3255 32.047 27.3255 32.047 27.3255C32.1789 26.2694 31.4521 25.2981 30.4017 25.1268C30.4017 25.1268 30.4017 25.1268 30.4017 25.1268L26.7256 24.5273C26.1511 24.4336 25.7292 23.9374 25.7292 23.3553V19.7917C25.7292 19.1359 25.1976 18.6042 24.5417 18.6042ZM24.5417 16.2292C22.5742 16.2292 20.9792 17.8242 20.9792 19.7917V24.4116C20.5641 24.2378 20.1149 24.1459 19.6562 24.1459C18.7525 24.1459 17.8856 24.5028 17.244 25.1387C17.2403 25.1423 17.2366 25.146 17.233 25.1496C16.078 26.3046 15.8987 28.1143 16.8048 29.4735C16.8048 29.4734 16.8048 29.4735 16.8048 29.4735L19.8765 34.0817C20.684 35.2932 22.0436 36.0209 23.4996 36.0209H29.51C31.706 36.0208 33.5582 34.3856 33.8305 32.2066L34.4037 27.62C34.6939 25.2966 33.0948 23.1596 30.7839 22.7827L28.1042 22.3458V19.7917C28.1042 17.8242 26.5092 16.2292 24.5417 16.2292Z" fill="#1B2126"/>
</svg>
