<svg width="38" height="38" viewBox="0 0 38 38" fill="none" xmlns="http://www.w3.org/2000/svg">
<path fill-rule="evenodd" clip-rule="evenodd" d="M19 13.0625C19.6558 13.0625 20.1875 13.5942 20.1875 14.25V23.75C20.1875 24.4058 19.6558 24.9375 19 24.9375C18.3442 24.9375 17.8125 24.4058 17.8125 23.75V14.25C17.8125 13.5942 18.3442 13.0625 19 13.0625Z" fill="#1B2126"/>
<path fill-rule="evenodd" clip-rule="evenodd" d="M16.6802 8.06679C15.9273 9.59001 15.4375 11.7764 15.4375 14.25C15.4375 14.9058 14.9058 15.4375 14.25 15.4375C13.5942 15.4375 13.0625 14.9058 13.0625 14.25C13.0625 11.4986 13.6018 8.93499 14.5511 7.01446C15.4688 5.1577 16.9643 3.5625 19 3.5625C21.0357 3.5625 22.5312 5.1577 23.4489 7.01446C24.3982 8.93499 24.9375 11.4986 24.9375 14.25C24.9375 14.9058 24.4058 15.4375 23.75 15.4375C23.0942 15.4375 22.5625 14.9058 22.5625 14.25C22.5625 11.7764 22.0727 9.59001 21.3198 8.06679C20.5354 6.4798 19.6559 5.9375 19 5.9375C18.3441 5.9375 17.4646 6.4798 16.6802 8.06679Z" fill="#1B2126"/>
<path fill-rule="evenodd" clip-rule="evenodd" d="M11.6505 27.3852C12.2662 27.6109 12.5823 28.2931 12.3566 28.9089L10.6149 33.6589C10.3891 34.2746 9.70694 34.5908 9.09118 34.365C8.47543 34.1392 8.1593 33.457 8.38507 32.8413L10.1267 28.0913C10.3525 27.4755 11.0347 27.1594 11.6505 27.3852Z" fill="#1B2126"/>
<path fill-rule="evenodd" clip-rule="evenodd" d="M24.7662 27.3852C25.382 27.1594 26.0641 27.4755 26.2899 28.0913L28.0316 32.8413C28.2574 33.457 27.9412 34.1392 27.3255 34.365C26.7097 34.5908 26.0275 34.2746 25.8018 33.6589L24.0601 28.9089C23.8343 28.2931 24.1505 27.6109 24.7662 27.3852Z" fill="#1B2126"/>
<path fill-rule="evenodd" clip-rule="evenodd" d="M34.224 21.6502C33.4725 19.1865 30.5717 18.5743 28.7375 19.95L25.8709 22.1793C25.8321 22.2095 25.7951 22.2421 25.7603 22.2769C25.6204 22.4169 25.2243 22.5625 24.7 22.5625H7.125C5.20249 22.5625 3.5625 24.2025 3.5625 26.125C3.5625 28.0475 5.2025 29.6875 7.125 29.6875H24.7C26.7417 29.6875 28.5515 28.9428 30.1087 27.9047C30.1328 27.8887 30.1562 27.8717 30.1791 27.854L33.0291 25.6373L33.0418 25.6272C34.2222 24.683 34.6864 23.0619 34.224 21.6502ZM5.9375 26.125C5.9375 26.7358 6.51417 27.3125 7.125 27.3125H24.7C26.1285 27.3125 27.4738 26.7999 28.756 25.952L31.5634 23.7685C31.9562 23.4504 32.1244 22.8706 31.967 22.3896C31.9625 22.3764 31.9583 22.363 31.9542 22.3495C31.7483 21.6629 30.8635 21.331 30.1696 21.8447L27.3792 24.015C26.5714 24.7747 25.4241 24.9375 24.7 24.9375H7.125C6.51417 24.9375 5.9375 25.5141 5.9375 26.125Z" fill="#1B2126"/>
<path fill-rule="evenodd" clip-rule="evenodd" d="M9.57918 6.76875C12.1394 4.84862 15.5521 3.5625 19 3.5625C22.448 3.5625 25.8607 4.84862 28.4208 6.76875C30.9512 8.66651 32.8542 11.3522 32.8542 14.25C32.8542 14.9058 32.3225 15.4375 31.6667 15.4375H6.33334C5.67751 15.4375 5.14584 14.9058 5.14584 14.25C5.14584 11.3522 7.04883 8.66651 9.57918 6.76875ZM7.6847 13.0625H30.3153C29.9072 11.5496 28.7501 9.98441 26.9958 8.66875C24.806 7.02638 21.8854 5.9375 19 5.9375C16.1146 5.9375 13.194 7.02638 11.0042 8.66875C9.24996 9.98441 8.09284 11.5496 7.6847 13.0625Z" fill="#1B2126"/>
</svg>
