<svg width="38" height="38" viewBox="0 0 38 38" fill="none" xmlns="http://www.w3.org/2000/svg">
<path fill-rule="evenodd" clip-rule="evenodd" d="M15.1376 13.7581C14.2101 12.8306 12.7064 12.8306 11.7789 13.7581C10.8514 14.6856 10.8514 16.1894 11.7789 17.1169C12.7064 18.0444 14.2101 18.0444 15.1376 17.1169C16.0651 16.1894 16.0651 14.6856 15.1376 13.7581ZM16.817 12.0787C14.962 10.2238 11.9545 10.2238 10.0995 12.0787C8.2445 13.9337 8.2445 16.9413 10.0995 18.7963C11.9545 20.6512 14.962 20.6512 16.817 18.7963C18.672 16.9413 18.672 13.9337 16.817 12.0787Z" fill="#1B2126"/>
<path fill-rule="evenodd" clip-rule="evenodd" d="M6.39821 6.72925C5.26963 6.72925 4.35413 7.64475 4.35413 8.77333V29.2917C4.35413 30.3855 5.23955 31.2709 6.33329 31.2709H31.6666C32.7604 31.2709 33.6458 30.3855 33.6458 29.2917V8.70842C33.6458 7.61467 32.7604 6.72925 31.6666 6.72925H6.39821ZM1.97913 8.77333C1.97913 6.33308 3.95795 4.35425 6.39821 4.35425H31.6666C34.072 4.35425 36.0208 6.30299 36.0208 8.70842V29.2917C36.0208 31.6972 34.072 33.6459 31.6666 33.6459H6.33329C3.92787 33.6459 1.97913 31.6972 1.97913 29.2917V8.77333Z" fill="#1B2126"/>
<path fill-rule="evenodd" clip-rule="evenodd" d="M22.5625 15.0417C22.5625 14.3859 23.0942 13.8542 23.75 13.8542H30.0833C30.7392 13.8542 31.2708 14.3859 31.2708 15.0417C31.2708 15.6976 30.7392 16.2292 30.0833 16.2292H23.75C23.0942 16.2292 22.5625 15.6976 22.5625 15.0417Z" fill="#1B2126"/>
<path fill-rule="evenodd" clip-rule="evenodd" d="M22.5625 21.375C22.5625 20.7192 23.0942 20.1875 23.75 20.1875H27.55C28.2058 20.1875 28.7375 20.7192 28.7375 21.375C28.7375 22.0308 28.2058 22.5625 27.55 22.5625H23.75C23.0942 22.5625 22.5625 22.0308 22.5625 21.375Z" fill="#1B2126"/>
<path fill-rule="evenodd" clip-rule="evenodd" d="M8.2134 23.4266C9.36223 22.3622 10.8695 21.771 12.4354 21.771H14.4811C16.0469 21.771 17.554 22.362 18.7027 23.4263M8.2134 23.4266C7.53373 24.0555 7.0053 24.827 6.6631 25.6854C6.42025 26.2947 6.71724 26.9854 7.32646 27.2282C7.93568 27.4711 8.62642 27.1741 8.86927 26.5649C9.08117 26.0333 9.40761 25.5573 9.82658 25.1697C9.82684 25.1695 9.8271 25.1692 9.82737 25.169C10.5373 24.511 11.4682 24.146 12.4354 24.146H14.4811C15.4483 24.146 16.3792 24.511 17.0892 25.169C17.0893 25.1691 17.0895 25.1693 17.0897 25.1694C17.0898 25.1695 17.0899 25.1696 17.09 25.1697C17.5089 25.5573 17.8354 26.0333 18.0473 26.5649C18.2901 27.1741 18.9809 27.4711 19.5901 27.2282C20.1993 26.9854 20.4963 26.2947 20.2534 25.6854C19.9112 24.8269 19.3827 24.0554 18.703 23.4265" fill="#1B2126"/>
</svg>
