<svg width="41" height="40" viewBox="0 0 41 40" fill="none" xmlns="http://www.w3.org/2000/svg">
<path fill-rule="evenodd" clip-rule="evenodd" d="M20.55 6.82004C20.4986 6.83596 20.4344 6.87049 20.3687 6.96524L10.3508 21.4363C10.184 21.677 10.3552 22.0064 10.6485 22.0064H19.0235C19.7314 22.0064 20.3054 22.5804 20.3054 23.2883V32.8267C20.3054 32.9423 20.3386 33.0072 20.3716 33.0493C20.4109 33.0995 20.4752 33.1469 20.5596 33.1733C20.644 33.1996 20.724 33.1973 20.7852 33.1783C20.8367 33.1624 20.9009 33.1279 20.9665 33.0331L30.9841 18.5625C31.1516 18.3203 30.9771 17.9919 30.6868 17.9919H22.3118C21.6038 17.9919 21.0299 17.418 21.0299 16.71V7.17167C21.0299 7.05603 20.9967 6.99118 20.9637 6.94906C20.9243 6.89882 20.8601 6.85146 20.7757 6.82509C20.6912 6.79872 20.6113 6.80106 20.55 6.82004ZM18.2615 5.50477C19.8945 3.14863 23.5937 4.30011 23.5937 7.17167V15.4281H30.6868C33.0465 15.4281 34.4353 18.0797 33.0928 20.0208L23.0741 34.493C21.4411 36.8491 17.7415 35.6982 17.7415 32.8267V24.5703H10.6485C8.28864 24.5703 6.89701 21.9196 8.24279 19.977C8.24293 19.9768 8.24265 19.9772 8.24279 19.977L18.2615 5.50477Z" fill="#02D72F"/>
</svg>
