<svg width="16" height="16" viewBox="0 0 16 16" fill="none" xmlns="http://www.w3.org/2000/svg">
<path fill-rule="evenodd" clip-rule="evenodd" d="M7.17502 2.17537C7.63066 1.71887 8.36938 1.71961 8.82497 2.1752L13.2963 6.64653C13.64 6.99019 13.8334 7.45666 13.8334 7.94275V13.6668C13.8334 13.9429 13.6096 14.1668 13.3334 14.1668H9.66675C9.39061 14.1668 9.16675 13.9429 9.16675 13.6668V10.6668C9.16675 10.0222 8.64461 9.50009 8.00008 9.50009C7.35556 9.50009 6.83342 10.0222 6.83342 10.6668V13.6668C6.83342 13.9429 6.60956 14.1668 6.33342 14.1668H2.66675C2.39061 14.1668 2.16675 13.9429 2.16675 13.6668V7.94275C2.16675 7.45666 2.3602 6.99019 2.70386 6.64653L7.17502 2.17537C7.17512 2.17528 7.17493 2.17546 7.17502 2.17537ZM8.00008 8.50009C9.19689 8.50009 10.1667 9.46994 10.1667 10.6668V13.1668H12.8334V7.94275C12.8334 7.72218 12.7455 7.50998 12.5892 7.35364L8.11786 2.88231C8.05221 2.81665 7.94714 2.8173 7.88275 2.88185L3.41097 7.35364C3.25463 7.50998 3.16675 7.72218 3.16675 7.94275V13.1668H5.83342V10.6668C5.83342 9.46994 6.80327 8.50009 8.00008 8.50009Z" fill="#A0AAB4"/>
</svg>
