<svg width="80" height="80" viewBox="0 0 80 80" fill="none" xmlns="http://www.w3.org/2000/svg">
<path fill-rule="evenodd" clip-rule="evenodd" d="M23.3337 35.8333C21.031 35.8333 19.167 37.6973 19.167 39.9999V63.3332C19.167 65.6359 21.031 67.4999 23.3337 67.4999H56.667C58.9696 67.4999 60.8337 65.6359 60.8337 63.3332V39.9999C60.8337 37.6973 58.9696 35.8333 56.667 35.8333H23.3337ZM14.167 39.9999C14.167 34.9359 18.2696 30.8333 23.3337 30.8333H56.667C61.731 30.8333 65.8337 34.9359 65.8337 39.9999V63.3332C65.8337 68.3973 61.731 72.4999 56.667 72.4999H23.3337C18.2696 72.4999 14.167 68.3973 14.167 63.3332V39.9999Z" fill="#02D72F"/>
<path fill-rule="evenodd" clip-rule="evenodd" d="M40.0003 12.5C34.0177 12.5 29.167 17.3507 29.167 23.3333V33.3333C29.167 34.714 28.0477 35.8333 26.667 35.8333C25.2863 35.8333 24.167 34.714 24.167 33.3333V23.3333C24.167 14.5893 31.2563 7.5 40.0003 7.5C48.7444 7.5 55.8337 14.5893 55.8337 23.3333V33.3333C55.8337 34.714 54.7144 35.8333 53.3337 35.8333C51.9529 35.8333 50.8337 34.714 50.8337 33.3333V23.3333C50.8337 17.3507 45.9829 12.5 40.0003 12.5Z" fill="#02D72F"/>
</svg>
