<svg width="41" height="40" viewBox="0 0 41 40" fill="none" xmlns="http://www.w3.org/2000/svg">
<path d="M32.417 17.7083V6.28999V6.28999C32.417 4.65666 31.0937 3.33333 29.4603 3.33333H6.62366C4.99033 3.33333 3.66699 4.65666 3.66699 6.28999V29.1267C3.66699 30.76 4.99033 32.0833 6.62366 32.0833H20.3337" stroke="#02D72F" stroke-width="2.5" stroke-linecap="round" stroke-linejoin="round"/>
<path fill-rule="evenodd" clip-rule="evenodd" d="M37.3185 34.88H32.4985L29.4118 37.94C28.5618 38.7817 27.1201 38.18 27.1201 36.985V24.68C27.1201 23.4833 28.5685 22.8817 29.4151 23.73L38.2701 32.585C39.1168 33.4317 38.5185 34.88 37.3185 34.88V34.88Z" stroke="#02D72F" stroke-width="2.5" stroke-linecap="round" stroke-linejoin="round"/>
<path d="M26.192 17.7083H17.4253" stroke="#02D72F" stroke-width="2.5" stroke-linecap="round" stroke-linejoin="round"/>
<path d="M10.8368 17.4133C11.0002 17.5767 11.0002 17.84 10.8368 18.0033C10.6735 18.1667 10.4102 18.1667 10.2468 18.0033C10.0835 17.84 10.0835 17.5767 10.2468 17.4133C10.4102 17.2517 10.6735 17.2517 10.8368 17.4133" stroke="#02D72F" stroke-width="2.5" stroke-linecap="round" stroke-linejoin="round"/>
<path d="M26.192 10.2083H17.4253" stroke="#02D72F" stroke-width="2.5" stroke-linecap="round" stroke-linejoin="round"/>
<path d="M10.8368 9.91833C11.0002 10.0817 11.0002 10.345 10.8368 10.5083C10.6735 10.6717 10.4102 10.6717 10.2468 10.5083C10.0835 10.345 10.0835 10.0817 10.2468 9.91833C10.4102 9.755 10.6735 9.75666 10.8368 9.91833" stroke="#02D72F" stroke-width="2.5" stroke-linecap="round" stroke-linejoin="round"/>
<path d="M20.3335 25.2083H17.5752" stroke="#02D72F" stroke-width="2.5" stroke-linecap="round" stroke-linejoin="round"/>
<path d="M10.9838 24.92C11.1471 25.0833 11.1471 25.3467 10.9838 25.51C10.8205 25.6733 10.5571 25.6733 10.3938 25.51C10.2305 25.3467 10.2305 25.0833 10.3938 24.92C10.5571 24.7567 10.8205 24.7583 10.9838 24.92" stroke="#02D72F" stroke-width="2.5" stroke-linecap="round" stroke-linejoin="round"/>
</svg>
