<svg width="40" height="40" viewBox="0 0 40 40" fill="none" xmlns="http://www.w3.org/2000/svg">
<path fill-rule="evenodd" clip-rule="evenodd" d="M14.1592 17.3302C14.0645 17.2355 13.93 17.1921 13.7978 17.2135C13.6656 17.235 13.5518 17.3187 13.4919 17.4385L7.17552 30.0712C6.78049 30.8613 6.93533 31.8155 7.55994 32.4401C8.18454 33.0647 9.13875 33.2195 9.92882 32.8245L22.5614 26.5082C22.6813 26.4483 22.765 26.3344 22.7865 26.2022C22.8079 26.07 22.7645 25.9355 22.6698 25.8408L14.1592 17.3302ZM15.927 15.5625C15.2641 14.8995 14.3228 14.5956 13.3973 14.7458C12.4719 14.896 11.675 15.4819 11.2558 16.3205C11.2558 16.3206 11.2558 16.3205 11.2558 16.3205L4.93945 28.9532C4.06319 30.7057 4.40667 32.8223 5.79216 34.2078C7.17767 35.5933 9.29431 35.9368 11.0468 35.0606L23.6794 28.7443C24.5181 28.325 25.104 27.5282 25.2542 26.6027C25.4044 25.6772 25.1005 24.736 24.4375 24.073C24.4375 24.073 24.4376 24.073 24.4375 24.073L15.927 15.5625C15.927 15.5625 15.927 15.5625 15.927 15.5625Z" fill="#02D72F"/>
<path fill-rule="evenodd" clip-rule="evenodd" d="M8.33325 3.75C9.02361 3.75 9.58325 4.30964 9.58325 5V5.83333C9.58325 6.52369 9.02361 7.08333 8.33325 7.08333C7.6429 7.08333 7.08325 6.52369 7.08325 5.83333V5C7.08325 4.30964 7.6429 3.75 8.33325 3.75Z" fill="#02D72F"/>
<path fill-rule="evenodd" clip-rule="evenodd" d="M8.33325 9.58333C9.02361 9.58333 9.58325 10.143 9.58325 10.8333V11.6667C9.58325 12.357 9.02361 12.9167 8.33325 12.9167C7.6429 12.9167 7.08325 12.357 7.08325 11.6667V10.8333C7.08325 10.143 7.6429 9.58333 8.33325 9.58333Z" fill="#02D72F"/>
<path fill-rule="evenodd" clip-rule="evenodd" d="M9.58325 8.33334C9.58325 7.64298 10.1429 7.08334 10.8333 7.08334H11.6666C12.3569 7.08334 12.9166 7.64298 12.9166 8.33334C12.9166 9.02369 12.3569 9.58334 11.6666 9.58334H10.8333C10.1429 9.58334 9.58325 9.02369 9.58325 8.33334Z" fill="#02D72F"/>
<path fill-rule="evenodd" clip-rule="evenodd" d="M3.75 8.33334C3.75 7.64298 4.30964 7.08334 5 7.08334H5.83333C6.52369 7.08334 7.08333 7.64298 7.08333 8.33334C7.08333 9.02369 6.52369 9.58334 5.83333 9.58334H5C4.30964 9.58334 3.75 9.02369 3.75 8.33334Z" fill="#02D72F"/>
<path fill-rule="evenodd" clip-rule="evenodd" d="M18.882 4.44096C19.1908 3.82349 19.9416 3.57323 20.5591 3.88198C21.7238 4.46436 22.5823 5.51881 22.9165 6.77736C23.2508 8.03591 23.0285 9.37739 22.3062 10.4609L22.3062 10.4609L21.0401 12.36C20.6572 12.9345 19.8811 13.0897 19.3067 12.7067C18.7322 12.3238 18.577 11.5477 18.96 10.9733L20.226 9.07418C20.226 9.07417 20.226 9.07417 20.226 9.07416C20.5506 8.58731 20.6505 7.98454 20.5003 7.41903C20.3501 6.85351 19.9643 6.37971 19.441 6.11802C18.8235 5.80927 18.5733 5.05842 18.882 4.44096Z" fill="#02D72F"/>
<path fill-rule="evenodd" clip-rule="evenodd" d="M30.9259 19.774C30.9259 19.774 30.9259 19.774 30.9259 19.774L29.0268 21.0401C28.4523 21.423 27.6763 21.2678 27.2933 20.6934C26.9104 20.119 27.0656 19.3429 27.64 18.9599L29.5391 17.6939L29.5392 17.6938C30.6227 16.9715 31.9641 16.7493 33.2227 17.0835C34.4812 17.4177 35.5357 18.2763 36.1181 19.441C36.4268 20.0584 36.1766 20.8093 35.5591 21.118C34.9416 21.4268 34.1908 21.1765 33.882 20.559C33.6203 20.0357 33.1465 19.6499 32.581 19.4997C32.0155 19.3496 31.4127 19.4494 30.9259 19.774Z" fill="#02D72F"/>
<path fill-rule="evenodd" clip-rule="evenodd" d="M31.6667 27.0833C32.3571 27.0833 32.9167 27.643 32.9167 28.3333V29.1667C32.9167 29.857 32.3571 30.4167 31.6667 30.4167C30.9764 30.4167 30.4167 29.857 30.4167 29.1667V28.3333C30.4167 27.643 30.9764 27.0833 31.6667 27.0833Z" fill="#02D72F"/>
<path fill-rule="evenodd" clip-rule="evenodd" d="M31.6667 32.9167C32.3571 32.9167 32.9167 33.4763 32.9167 34.1667V35C32.9167 35.6904 32.3571 36.25 31.6667 36.25C30.9764 36.25 30.4167 35.6904 30.4167 35V34.1667C30.4167 33.4763 30.9764 32.9167 31.6667 32.9167Z" fill="#02D72F"/>
<path fill-rule="evenodd" clip-rule="evenodd" d="M32.9167 31.6667C32.9167 30.9763 33.4764 30.4167 34.1667 30.4167H35.0001C35.6904 30.4167 36.2501 30.9763 36.2501 31.6667C36.2501 32.357 35.6904 32.9167 35.0001 32.9167H34.1667C33.4764 32.9167 32.9167 32.357 32.9167 31.6667Z" fill="#02D72F"/>
<path fill-rule="evenodd" clip-rule="evenodd" d="M27.0833 31.6667C27.0833 30.9763 27.6429 30.4167 28.3333 30.4167H29.1666C29.8569 30.4167 30.4166 30.9763 30.4166 31.6667C30.4166 32.357 29.8569 32.9167 29.1666 32.9167H28.3333C27.6429 32.9167 27.0833 32.357 27.0833 31.6667Z" fill="#02D72F"/>
<path fill-rule="evenodd" clip-rule="evenodd" d="M31.6667 3.75C32.3571 3.75 32.9167 4.30964 32.9167 5V5.83333C32.9167 6.52369 32.3571 7.08333 31.6667 7.08333C30.9764 7.08333 30.4167 6.52369 30.4167 5.83333V5C30.4167 4.30964 30.9764 3.75 31.6667 3.75Z" fill="#02D72F"/>
<path fill-rule="evenodd" clip-rule="evenodd" d="M31.6667 9.58333C32.3571 9.58333 32.9167 10.143 32.9167 10.8333V11.6667C32.9167 12.357 32.3571 12.9167 31.6667 12.9167C30.9764 12.9167 30.4167 12.357 30.4167 11.6667V10.8333C30.4167 10.143 30.9764 9.58333 31.6667 9.58333Z" fill="#02D72F"/>
<path fill-rule="evenodd" clip-rule="evenodd" d="M32.9167 8.33334C32.9167 7.64298 33.4764 7.08334 34.1667 7.08334H35.0001C35.6904 7.08334 36.2501 7.64298 36.2501 8.33334C36.2501 9.02369 35.6904 9.58334 35.0001 9.58334H34.1667C33.4764 9.58334 32.9167 9.02369 32.9167 8.33334Z" fill="#02D72F"/>
<path fill-rule="evenodd" clip-rule="evenodd" d="M27.0833 8.33334C27.0833 7.64298 27.6429 7.08334 28.3333 7.08334H29.1666C29.8569 7.08334 30.4166 7.64298 30.4166 8.33334C30.4166 9.02369 29.8569 9.58334 29.1666 9.58334H28.3333C27.6429 9.58334 27.0833 9.02369 27.0833 8.33334Z" fill="#02D72F"/>
<path fill-rule="evenodd" clip-rule="evenodd" d="M25.8838 14.1161C26.372 14.6043 26.372 15.3957 25.8838 15.8839L24.2171 17.5505C23.729 18.0387 22.9375 18.0387 22.4494 17.5505C21.9612 17.0624 21.9612 16.2709 22.4494 15.7828L24.116 14.1161C24.6042 13.628 25.3956 13.628 25.8838 14.1161Z" fill="#02D72F"/>
</svg>
