<svg width="41" height="40" viewBox="0 0 41 40" fill="none" xmlns="http://www.w3.org/2000/svg">
<path fill-rule="evenodd" clip-rule="evenodd" d="M8.66683 6.25C7.51552 6.25 6.5835 7.18202 6.5835 8.33333V31.6667C6.5835 32.818 7.51552 33.75 8.66683 33.75H32.0002C33.1515 33.75 34.0835 32.818 34.0835 31.6667V8.33333C34.0835 7.18202 33.1515 6.25 32.0002 6.25H8.66683ZM4.0835 8.33333C4.0835 5.80131 6.13481 3.75 8.66683 3.75H32.0002C34.5322 3.75 36.5835 5.80131 36.5835 8.33333V31.6667C36.5835 34.1987 34.5322 36.25 32.0002 36.25H8.66683C6.13481 36.25 4.0835 34.1987 4.0835 31.6667V8.33333ZM10.7502 13.3333C10.7502 12.643 11.3098 12.0833 12.0002 12.0833H28.6668C29.3572 12.0833 29.9168 12.643 29.9168 13.3333C29.9168 14.0237 29.3572 14.5833 28.6668 14.5833H12.0002C11.3098 14.5833 10.7502 14.0237 10.7502 13.3333ZM10.7502 20C10.7502 19.3096 11.3098 18.75 12.0002 18.75H25.3335C26.0239 18.75 26.5835 19.3096 26.5835 20C26.5835 20.6904 26.0239 21.25 25.3335 21.25H12.0002C11.3098 21.25 10.7502 20.6904 10.7502 20ZM31.2174 24.1161C31.7055 24.6043 31.7055 25.3957 31.2174 25.8839L26.2174 30.8839C25.7292 31.372 24.9378 31.372 24.4496 30.8839L21.1163 27.5505C20.6281 27.0624 20.6281 26.2709 21.1163 25.7828C21.6044 25.2946 22.3959 25.2946 22.884 25.7828L25.3335 28.2322L29.4496 24.1161C29.9378 23.628 30.7292 23.628 31.2174 24.1161ZM10.7502 26.6667C10.7502 25.9763 11.3098 25.4167 12.0002 25.4167H15.3335C16.0239 25.4167 16.5835 25.9763 16.5835 26.6667C16.5835 27.357 16.0239 27.9167 15.3335 27.9167H12.0002C11.3098 27.9167 10.7502 27.357 10.7502 26.6667Z" fill="#02D72F"/>
</svg>
