<svg width="41" height="40" viewBox="0 0 41 40" fill="none" xmlns="http://www.w3.org/2000/svg">
<path fill-rule="evenodd" clip-rule="evenodd" d="M23.1047 10.187C19.7065 6.78879 14.1969 6.78879 10.7987 10.187C7.40045 13.5852 7.40045 19.0948 10.7987 22.493C14.1969 25.8912 19.7065 25.8912 23.1047 22.493C26.5029 19.0948 26.5029 13.5852 23.1047 10.187ZM24.8724 8.41924C20.4979 4.04471 13.4054 4.04471 9.03089 8.41924C4.65637 12.7938 4.65637 19.8863 9.03089 24.2608C13.4054 28.6353 20.4979 28.6353 24.8724 24.2608C29.247 19.8863 29.247 12.7938 24.8724 8.41924Z" fill="#02D72F"/>
<path fill-rule="evenodd" clip-rule="evenodd" d="M23.0386 22.5435C23.5301 22.0586 24.3215 22.064 24.8064 22.5555L34.5564 32.4388C35.0412 32.9303 35.0358 33.7217 34.5444 34.2065C34.0529 34.6914 33.2615 34.686 32.7766 34.1945L23.0266 24.3112C22.5418 23.8197 22.5472 23.0283 23.0386 22.5435Z" fill="#02D72F"/>
</svg>
