<svg width="24" height="24" viewBox="0 0 24 24" fill="none" xmlns="http://www.w3.org/2000/svg">
<g clip-path="url(#clip0_9528_64069)">
<path d="M11.75 18.25C11.75 17.805 11.618 17.37 11.3708 17C11.1236 16.63 10.7722 16.3416 10.361 16.1713C9.9499 16.001 9.4975 15.9564 9.06104 16.0432C8.62459 16.13 8.22368 16.3443 7.90901 16.659C7.59434 16.9737 7.38005 17.3746 7.29323 17.811C7.20641 18.2475 7.25097 18.6999 7.42127 19.111C7.59157 19.5222 7.87995 19.8736 8.24996 20.1208C8.61998 20.368 9.05499 20.5 9.5 20.5C10.0967 20.5 10.669 20.2629 11.091 19.841C11.5129 19.419 11.75 18.8467 11.75 18.25ZM10.25 18.25C10.25 18.3983 10.206 18.5433 10.1236 18.6667C10.0412 18.79 9.92406 18.8861 9.78701 18.9429C9.64997 18.9997 9.49917 19.0145 9.35368 18.9856C9.20819 18.9566 9.07456 18.8852 8.96967 18.7803C8.86478 18.6754 8.79335 18.5418 8.76441 18.3963C8.73547 18.2508 8.75032 18.1 8.80709 17.963C8.86385 17.8259 8.95998 17.7088 9.08332 17.6264C9.20666 17.544 9.35166 17.5 9.5 17.5C9.69891 17.5 9.88968 17.579 10.0303 17.7197C10.171 17.8603 10.25 18.0511 10.25 18.25ZM19.25 18.25C19.25 17.805 19.118 17.37 18.8708 17C18.6236 16.63 18.2722 16.3416 17.861 16.1713C17.4499 16.001 16.9975 15.9564 16.561 16.0432C16.1246 16.13 15.7237 16.3443 15.409 16.659C15.0943 16.9737 14.88 17.3746 14.7932 17.811C14.7064 18.2475 14.751 18.6999 14.9213 19.111C15.0916 19.5222 15.38 19.8736 15.75 20.1208C16.12 20.368 16.555 20.5 17 20.5C17.5967 20.5 18.169 20.2629 18.591 19.841C19.0129 19.419 19.25 18.8467 19.25 18.25ZM17.75 18.25C17.75 18.3983 17.706 18.5433 17.6236 18.6667C17.5412 18.79 17.4241 18.8861 17.287 18.9429C17.15 18.9997 16.9992 19.0145 16.8537 18.9856C16.7082 18.9566 16.5746 18.8852 16.4697 18.7803C16.3648 18.6754 16.2933 18.5418 16.2644 18.3963C16.2355 18.2508 16.2503 18.1 16.3071 17.963C16.3639 17.8259 16.46 17.7088 16.5833 17.6264C16.7067 17.544 16.8517 17.5 17 17.5C17.1989 17.5 17.3897 17.579 17.5303 17.7197C17.671 17.8603 17.75 18.0511 17.75 18.25ZM17 15.25C17.1613 15.25 17.3184 15.198 17.4478 15.1017C17.5773 15.0053 17.6722 14.8698 17.7185 14.7153L19.9685 7.21525C19.9896 7.14545 20.0002 7.07291 20 7C20 6.80109 19.921 6.61032 19.7803 6.46967C19.6397 6.32902 19.4489 6.25 19.25 6.25H9.5V4.75C9.5 4.55109 9.42098 4.36032 9.28033 4.21967C9.13968 4.07902 8.94891 4 8.75 4H5.75C5.55109 4 5.36032 4.07902 5.21967 4.21967C5.07901 4.36032 5 4.55109 5 4.75C5 4.94891 5.07901 5.13968 5.21967 5.28033C5.36032 5.42098 5.55109 5.5 5.75 5.5H8V14.5C8 14.6989 8.07901 14.8897 8.21967 15.0303C8.36032 15.171 8.55109 15.25 8.75 15.25H17ZM16.442 13.75H9.5V7.75H18.2412L16.442 13.75Z" fill="white"/>
</g>
<defs>
<clipPath id="clip0_9528_64069">
<rect width="24" height="24" fill="white"/>
</clipPath>
</defs>
</svg>
