<svg width="33" height="32" viewBox="0 0 33 32" fill="none" xmlns="http://www.w3.org/2000/svg">
<path d="M17.1875 3L16.875 3.28125L10.0938 10H6.83333C6.09695 10 5.5 10.597 5.5 11.3333V24.6667C5.5 25.403 6.09695 26 6.83333 26H22.3438C23.7539 26 24.9844 25.0039 25.2812 23.625L27.4375 13.625C27.832 11.7773 26.3867 10 24.5 10H18.75L18.9375 9.25C19.1406 9.09375 19.2695 9.02734 19.5625 8.625C20.0312 7.98438 20.5 6.99219 20.5 5.65625C20.5 4.23047 19.2109 3 17.5938 3H17.1875ZM17.9062 5.09375C18.3281 5.17578 18.5 5.34766 18.5 5.65625C18.5 6.55859 18.2266 7.11719 17.9688 7.46875C17.7109 7.82031 17.5312 7.90625 17.5312 7.90625L17.1875 8.09375L17.0625 8.5L16.4688 10.75L16.1562 12H24.5C25.1602 12 25.6055 12.5742 25.4688 13.2188L23.3438 23.2188C23.2422 23.6875 22.8203 24 22.3438 24H11.5V11.4062L17.9062 5.09375ZM7.5 12H9.5V24H7.5V12Z" fill="white"/>
</svg>
