<svg width="41" height="40" viewBox="0 0 41 40" fill="none" xmlns="http://www.w3.org/2000/svg">
<path d="M21.5261 3.75L21.1355 4.10156L12.6589 12.5H8.58341C7.66294 12.5 6.91675 13.2462 6.91675 14.1667V30.8333C6.91675 31.7538 7.66294 32.5 8.58341 32.5H27.9714C29.7341 32.5 31.2722 31.2549 31.6433 29.5312L34.3386 17.0312C34.8318 14.7217 33.0251 12.5 30.6667 12.5H23.4792L23.7136 11.5625C23.9675 11.3672 24.1287 11.2842 24.4949 10.7812C25.0808 9.98047 25.6667 8.74023 25.6667 7.07031C25.6667 5.28809 24.0554 3.75 22.0339 3.75H21.5261ZM22.4246 6.36719C22.9519 6.46973 23.1667 6.68457 23.1667 7.07031C23.1667 8.19824 22.825 8.89648 22.5027 9.33594C22.1804 9.77539 21.9558 9.88281 21.9558 9.88281L21.5261 10.1172L21.3699 10.625L20.6277 13.4375L20.2371 15H30.6667C31.4919 15 32.0486 15.7178 31.8777 16.5234L29.2214 29.0234C29.0945 29.6094 28.5671 30 27.9714 30H14.4167V14.2578L22.4246 6.36719ZM9.41675 15H11.9167V30H9.41675V15Z" fill="#02D72F"/>
</svg>
