<svg width="24" height="25" viewBox="0 0 24 25" fill="none" xmlns="http://www.w3.org/2000/svg">
<path d="M12.4227 4.46567C13.65 5.69301 13.65 7.68292 12.4227 8.91026C11.1954 10.1376 9.20546 10.1376 7.97812 8.91026C6.75078 7.68292 6.75078 5.69301 7.97812 4.46567C9.20546 3.23833 11.1954 3.23833 12.4227 4.46567" stroke="#1B2126" stroke-width="1.5" stroke-linecap="round" stroke-linejoin="round"/>
<path d="M14.1267 13.2619C12.9576 12.7948 11.586 12.5374 10.2 12.5374C6.5568 12.5374 3 14.3077 3 17.0302V17.9302C3 18.427 3.4032 18.8302 3.9 18.8302H12.3717" stroke="#1B2126" stroke-width="1.5" stroke-linecap="round" stroke-linejoin="round"/>
<path d="M16.5 21.5452C14.0151 21.5452 12 19.531 12 17.0452C12 14.6116 14.07 12.5425 16.5036 12.5452C18.9876 12.547 21 14.5612 21 17.0452C21 19.5301 18.9858 21.5452 16.5 21.5452" stroke="#1B2126" stroke-width="1.5" stroke-linecap="round" stroke-linejoin="round"/>
<path d="M16.4998 15.2452V15.8482" stroke="#1B2126" stroke-width="1.5" stroke-linecap="round" stroke-linejoin="round"/>
<path d="M16.4998 18.2423V18.8452" stroke="#1B2126" stroke-width="1.5" stroke-linecap="round" stroke-linejoin="round"/>
<path d="M14.9429 16.1452L15.4649 16.4423" stroke="#1B2126" stroke-width="1.5" stroke-linecap="round" stroke-linejoin="round"/>
<path d="M17.5441 17.6482L18.0571 17.9452" stroke="#1B2126" stroke-width="1.5" stroke-linecap="round" stroke-linejoin="round"/>
<path d="M14.9429 17.9452L15.4649 17.6482" stroke="#1B2126" stroke-width="1.5" stroke-linecap="round" stroke-linejoin="round"/>
<path d="M17.5441 16.4423L18.0571 16.1452" stroke="#1B2126" stroke-width="1.5" stroke-linecap="round" stroke-linejoin="round"/>
<path d="M17.3494 16.1961C17.8182 16.665 17.8182 17.4252 17.3494 17.894C16.8805 18.3629 16.1203 18.3629 15.6515 17.894C15.1826 17.4252 15.1826 16.665 15.6515 16.1961C16.1203 15.7273 16.8805 15.7273 17.3494 16.1961" stroke="#1B2126" stroke-width="1.5" stroke-linecap="round" stroke-linejoin="round"/>
</svg>
